<mxfile host="app.diagrams.net" modified="2023-06-06T05:49:51.843Z" agent="Mozilla/5.0 (Windows NT 10.0; Win64; x64) AppleWebKit/537.36 (KHTML, like Gecko) Chrome/112.0.0.0 Safari/537.36" etag="zFOkzLNfSOHHfxyO5Fwn" version="21.3.3" type="github">
  <diagram name="第 1 页" id="ZdQm4QDE7eo_3IqJWiH7">
    <mxGraphModel dx="1135" dy="483" grid="1" gridSize="10" guides="1" tooltips="1" connect="1" arrows="1" fold="1" page="1" pageScale="1" pageWidth="827" pageHeight="1169" math="0" shadow="0">
      <root>
        <mxCell id="0" />
        <mxCell id="1" parent="0" />
        <mxCell id="yIpsprf4zcvvTlZBt0Jq-1" value="" style="rounded=0;whiteSpace=wrap;html=1;fillColor=none;dashed=1;" parent="1" vertex="1">
          <mxGeometry x="10" y="40" width="120" height="210" as="geometry" />
        </mxCell>
        <mxCell id="yIpsprf4zcvvTlZBt0Jq-2" value="IDC" style="rounded=0;whiteSpace=wrap;html=1;dashed=1;dashPattern=1 2;fillColor=none;verticalAlign=top;align=left;strokeColor=#3399FF;strokeWidth=2;" parent="1" vertex="1">
          <mxGeometry x="260" y="20" width="680" height="460" as="geometry" />
        </mxCell>
        <mxCell id="yIpsprf4zcvvTlZBt0Jq-3" value="" style="rounded=0;whiteSpace=wrap;html=1;fillColor=none;dashed=1;" parent="1" vertex="1">
          <mxGeometry x="400" y="69.62" width="310" height="360" as="geometry" />
        </mxCell>
        <mxCell id="yIpsprf4zcvvTlZBt0Jq-4" value="" style="rounded=0;whiteSpace=wrap;html=1;fillColor=none;dashed=1;" parent="1" vertex="1">
          <mxGeometry x="300" y="70" width="80" height="360" as="geometry" />
        </mxCell>
        <mxCell id="yIpsprf4zcvvTlZBt0Jq-5" style="edgeStyle=orthogonalEdgeStyle;rounded=0;orthogonalLoop=1;jettySize=auto;html=1;exitX=0;exitY=0.5;exitDx=0;exitDy=0;startArrow=classic;startFill=1;endArrow=none;endFill=0;" parent="1" source="yIpsprf4zcvvTlZBt0Jq-6" edge="1">
          <mxGeometry relative="1" as="geometry">
            <mxPoint x="712" y="230" as="targetPoint" />
          </mxGeometry>
        </mxCell>
        <mxCell id="yIpsprf4zcvvTlZBt0Jq-6" value="" style="rounded=0;whiteSpace=wrap;html=1;fillColor=none;dashed=1;" parent="1" vertex="1">
          <mxGeometry x="750" y="91.62" width="180" height="279.38" as="geometry" />
        </mxCell>
        <mxCell id="yIpsprf4zcvvTlZBt0Jq-7" style="edgeStyle=orthogonalEdgeStyle;rounded=0;orthogonalLoop=1;jettySize=auto;html=1;exitX=1;exitY=0.5;exitDx=0;exitDy=0;entryX=0;entryY=0.5;entryDx=0;entryDy=0;curved=1;" parent="1" source="yIpsprf4zcvvTlZBt0Jq-8" target="yIpsprf4zcvvTlZBt0Jq-12" edge="1">
          <mxGeometry relative="1" as="geometry" />
        </mxCell>
        <mxCell id="yIpsprf4zcvvTlZBt0Jq-8" value="" style="image;html=1;image=img/lib/clip_art/computers/Laptop_128x128.png" parent="1" vertex="1">
          <mxGeometry x="63" y="59" width="40" height="40" as="geometry" />
        </mxCell>
        <mxCell id="yIpsprf4zcvvTlZBt0Jq-9" style="edgeStyle=orthogonalEdgeStyle;rounded=0;orthogonalLoop=1;jettySize=auto;html=1;exitX=1;exitY=0.5;exitDx=0;exitDy=0;curved=1;" parent="1" source="yIpsprf4zcvvTlZBt0Jq-10" target="yIpsprf4zcvvTlZBt0Jq-12" edge="1">
          <mxGeometry relative="1" as="geometry" />
        </mxCell>
        <mxCell id="yIpsprf4zcvvTlZBt0Jq-10" value="" style="image;html=1;image=img/lib/clip_art/telecommunication/iPhone_128x128.png" parent="1" vertex="1">
          <mxGeometry x="63" y="118" width="40" height="40" as="geometry" />
        </mxCell>
        <mxCell id="yIpsprf4zcvvTlZBt0Jq-11" style="edgeStyle=orthogonalEdgeStyle;rounded=0;orthogonalLoop=1;jettySize=auto;html=1;exitX=1;exitY=0.5;exitDx=0;exitDy=0;entryX=0;entryY=0.5;entryDx=0;entryDy=0;entryPerimeter=0;" parent="1" source="yIpsprf4zcvvTlZBt0Jq-12" target="yIpsprf4zcvvTlZBt0Jq-14" edge="1">
          <mxGeometry relative="1" as="geometry">
            <mxPoint x="223" y="138" as="targetPoint" />
          </mxGeometry>
        </mxCell>
        <mxCell id="yIpsprf4zcvvTlZBt0Jq-12" value="公网/VPN/专线" style="image;aspect=fixed;perimeter=ellipsePerimeter;html=1;align=center;shadow=0;dashed=0;spacingTop=3;image=img/lib/active_directory/internet_cloud.svg;" parent="1" vertex="1">
          <mxGeometry x="143" y="122" width="50" height="31.5" as="geometry" />
        </mxCell>
        <mxCell id="yIpsprf4zcvvTlZBt0Jq-13" style="rounded=0;orthogonalLoop=1;jettySize=auto;html=1;exitX=1;exitY=0.5;exitDx=0;exitDy=0;exitPerimeter=0;entryX=-0.023;entryY=0.188;entryDx=0;entryDy=0;entryPerimeter=0;" parent="1" source="yIpsprf4zcvvTlZBt0Jq-14" target="yIpsprf4zcvvTlZBt0Jq-4" edge="1">
          <mxGeometry relative="1" as="geometry" />
        </mxCell>
        <mxCell id="yIpsprf4zcvvTlZBt0Jq-14" value="网络防火墙" style="sketch=0;points=[[0,0,0],[0.25,0,0],[0.5,0,0],[0.75,0,0],[1,0,0],[0,1,0],[0.25,1,0],[0.5,1,0],[0.75,1,0],[1,1,0],[0,0.25,0],[0,0.5,0],[0,0.75,0],[1,0.25,0],[1,0.5,0],[1,0.75,0]];outlineConnect=0;fontColor=#232F3E;gradientColor=#F54749;gradientDirection=north;fillColor=#C7131F;strokeColor=#ffffff;dashed=0;verticalLabelPosition=bottom;verticalAlign=top;align=center;html=1;fontSize=12;fontStyle=0;aspect=fixed;shape=mxgraph.aws4.resourceIcon;resIcon=mxgraph.aws4.network_firewall;textOpacity=0;labelBackgroundColor=default;" parent="1" vertex="1">
          <mxGeometry x="240" y="118" width="40" height="40" as="geometry" />
        </mxCell>
        <mxCell id="yIpsprf4zcvvTlZBt0Jq-15" value="应用防火墙" style="image;sketch=0;aspect=fixed;html=1;points=[];align=center;fontSize=12;image=img/lib/mscae/Web_App_Firewall.svg;" parent="1" vertex="1">
          <mxGeometry x="320" y="100" width="40" height="40" as="geometry" />
        </mxCell>
        <mxCell id="yIpsprf4zcvvTlZBt0Jq-16" value="DDos防护" style="shape=image;imageAspect=0;aspect=fixed;verticalLabelPosition=bottom;verticalAlign=top;image=data:image/svg+xml,PHN2ZyB4bWxuczp4bGluaz0iaHR0cDovL3d3dy53My5vcmcvMTk5OS94bGluayIgeG1sbnM9Imh0dHA6Ly93d3cudzMub3JnLzIwMDAvc3ZnIiBoZWlnaHQ9IjIwMCIgd2lkdGg9IjIwMCIgdmVyc2lvbj0iMS4xIiB2aWV3Qm94PSIwIDAgMTAyNCAxMDI0IiBjbGFzcz0iaWNvbiI+PHBhdGggZmlsbD0iIzEyOTZkYiIgZD0iTTQ2Ny4yIDg1Ny42IDU4OC44IDUxMmwtMjU2IDAgMjExLjItNDAzLjJMNDczLjYgNDQ4bDI3NS4yIDBMNDY3LjIgODU3LjYgNDY3LjIgODU3LjZ6Ii8+PHBhdGggZmlsbD0iIzEyOTZkYiIgZD0iTTUyNC44IDcwLjRjMTcyLjggMCAzMTMuNiAwIDM5Ni44IDAgMCAxNzkuMi0yNS42IDY1Mi44LTQwOS42IDg3Ni44QzE3OS4yIDc0Mi40IDg5LjYgMzMyLjggMTA4LjggNzAuNCAxNzkuMiA3MC40IDMxMy42IDcwLjQgNTI0LjggNzAuNE01MjQuOCAwQzI4OCAwIDQ0LjggMCA0NC44IDAgMCAyODggOTYgNzkzLjYgNTEyIDEwMjRjNDIyLjQtMjI0IDQ5OS4yLTczNiA0NzMuNi0xMDI0Qzk4NS42IDAgNzU1LjIgMCA1MjQuOCAwTDUyNC44IDAgNTI0LjggMHoiLz48L3N2Zz4=;" parent="1" vertex="1">
          <mxGeometry x="320" y="319" width="40" height="40" as="geometry" />
        </mxCell>
        <mxCell id="yIpsprf4zcvvTlZBt0Jq-18" style="rounded=0;orthogonalLoop=1;jettySize=auto;html=1;exitX=1;exitY=0.5;exitDx=0;exitDy=0;exitPerimeter=0;entryX=0;entryY=0.5;entryDx=0;entryDy=0;" parent="1" source="yIpsprf4zcvvTlZBt0Jq-20" target="yIpsprf4zcvvTlZBt0Jq-52" edge="1">
          <mxGeometry relative="1" as="geometry" />
        </mxCell>
        <mxCell id="yIpsprf4zcvvTlZBt0Jq-19" style="edgeStyle=none;rounded=0;orthogonalLoop=1;jettySize=auto;html=1;exitX=1;exitY=0.5;exitDx=0;exitDy=0;exitPerimeter=0;entryX=0;entryY=0.5;entryDx=0;entryDy=0;" parent="1" source="yIpsprf4zcvvTlZBt0Jq-20" target="yIpsprf4zcvvTlZBt0Jq-22" edge="1">
          <mxGeometry relative="1" as="geometry" />
        </mxCell>
        <mxCell id="yIpsprf4zcvvTlZBt0Jq-20" value="负载均衡" style="outlineConnect=0;dashed=0;verticalLabelPosition=bottom;verticalAlign=top;align=center;html=1;shape=mxgraph.aws3.classic_load_balancer;fillColor=#1BA1E2;gradientColor=none;" parent="1" vertex="1">
          <mxGeometry x="440" y="230" width="40" height="40" as="geometry" />
        </mxCell>
        <mxCell id="yIpsprf4zcvvTlZBt0Jq-21" value="" style="group" parent="1" vertex="1" connectable="0">
          <mxGeometry x="530.5" y="235" width="149.5" height="35" as="geometry" />
        </mxCell>
        <mxCell id="yIpsprf4zcvvTlZBt0Jq-22" value="" style="rounded=0;whiteSpace=wrap;html=1;dashed=1;" parent="yIpsprf4zcvvTlZBt0Jq-21" vertex="1">
          <mxGeometry x="-10.5" y="-4.325842696629214" width="160" height="39.325842696629216" as="geometry" />
        </mxCell>
        <mxCell id="yIpsprf4zcvvTlZBt0Jq-23" value="" style="sketch=0;outlineConnect=0;fontColor=#232F3E;gradientColor=none;fillColor=#1BA1E2;strokeColor=none;dashed=0;verticalLabelPosition=bottom;verticalAlign=top;align=center;html=1;fontSize=12;fontStyle=0;aspect=fixed;pointerEvents=1;shape=mxgraph.aws4.servers;" parent="yIpsprf4zcvvTlZBt0Jq-21" vertex="1">
          <mxGeometry width="30.674157303370787" height="30.674157303370787" as="geometry" />
        </mxCell>
        <mxCell id="yIpsprf4zcvvTlZBt0Jq-24" value="机场SaaS服务集群" style="sketch=0;outlineConnect=0;fontColor=#232F3E;gradientColor=none;fillColor=#1BA1E2;strokeColor=none;dashed=0;verticalLabelPosition=bottom;verticalAlign=top;align=center;html=1;fontSize=12;fontStyle=0;aspect=fixed;pointerEvents=1;shape=mxgraph.aws4.servers;" parent="yIpsprf4zcvvTlZBt0Jq-21" vertex="1">
          <mxGeometry x="50" width="30.674157303370787" height="30.674157303370787" as="geometry" />
        </mxCell>
        <mxCell id="yIpsprf4zcvvTlZBt0Jq-25" value="" style="sketch=0;outlineConnect=0;fontColor=#232F3E;gradientColor=none;fillColor=#1BA1E2;strokeColor=none;dashed=0;verticalLabelPosition=bottom;verticalAlign=top;align=center;html=1;fontSize=12;fontStyle=0;aspect=fixed;pointerEvents=1;shape=mxgraph.aws4.servers;" parent="yIpsprf4zcvvTlZBt0Jq-21" vertex="1">
          <mxGeometry x="100" width="30.674157303370787" height="30.674157303370787" as="geometry" />
        </mxCell>
        <mxCell id="yIpsprf4zcvvTlZBt0Jq-26" style="edgeStyle=orthogonalEdgeStyle;rounded=0;orthogonalLoop=1;jettySize=auto;html=1;exitX=1;exitY=0.5;exitDx=0;exitDy=0;" parent="1" source="yIpsprf4zcvvTlZBt0Jq-27" target="yIpsprf4zcvvTlZBt0Jq-31" edge="1">
          <mxGeometry relative="1" as="geometry" />
        </mxCell>
        <mxCell id="yIpsprf4zcvvTlZBt0Jq-27" value="" style="image;html=1;image=img/lib/clip_art/computers/Laptop_128x128.png" parent="1" vertex="1">
          <mxGeometry x="63" y="323" width="40" height="40" as="geometry" />
        </mxCell>
        <mxCell id="yIpsprf4zcvvTlZBt0Jq-28" style="rounded=0;orthogonalLoop=1;jettySize=auto;html=1;exitX=1;exitY=0.5;exitDx=0;exitDy=0;entryX=-0.006;entryY=0.764;entryDx=0;entryDy=0;entryPerimeter=0;" parent="1" source="yIpsprf4zcvvTlZBt0Jq-29" target="yIpsprf4zcvvTlZBt0Jq-4" edge="1">
          <mxGeometry relative="1" as="geometry" />
        </mxCell>
        <mxCell id="yIpsprf4zcvvTlZBt0Jq-29" value="交换机" style="image;html=1;image=img/lib/clip_art/networking/Switch_128x128.png;" parent="1" vertex="1">
          <mxGeometry x="240" y="325" width="40" height="40" as="geometry" />
        </mxCell>
        <mxCell id="yIpsprf4zcvvTlZBt0Jq-30" style="edgeStyle=orthogonalEdgeStyle;rounded=0;orthogonalLoop=1;jettySize=auto;html=1;exitX=0.8;exitY=0.55;exitDx=0;exitDy=0;exitPerimeter=0;entryX=0;entryY=0.5;entryDx=0;entryDy=0;" parent="1" source="yIpsprf4zcvvTlZBt0Jq-31" target="yIpsprf4zcvvTlZBt0Jq-29" edge="1">
          <mxGeometry relative="1" as="geometry">
            <mxPoint x="223" y="345" as="targetPoint" />
          </mxGeometry>
        </mxCell>
        <mxCell id="yIpsprf4zcvvTlZBt0Jq-31" value="VPN连接" style="outlineConnect=0;dashed=0;verticalLabelPosition=bottom;verticalAlign=top;align=center;html=1;shape=mxgraph.aws3.vpn_connection;fillColor=#1BA1E2;gradientColor=none;" parent="1" vertex="1">
          <mxGeometry x="143" y="323" width="40" height="40" as="geometry" />
        </mxCell>
        <mxCell id="yIpsprf4zcvvTlZBt0Jq-32" value="" style="group;dashed=1;dashPattern=1 1;" parent="1" vertex="1" connectable="0">
          <mxGeometry x="770" y="247" width="150.5" height="39" as="geometry" />
        </mxCell>
        <mxCell id="yIpsprf4zcvvTlZBt0Jq-33" value="" style="shape=image;imageAspect=0;aspect=fixed;verticalLabelPosition=bottom;verticalAlign=top;image=data:image/svg+xml,PHN2ZyB4bWxuczp4bGluaz0iaHR0cDovL3d3dy53My5vcmcvMTk5OS94bGluayIgeG1sbnM9Imh0dHA6Ly93d3cudzMub3JnLzIwMDAvc3ZnIiBoZWlnaHQ9IjIwMCIgd2lkdGg9IjIwMCIgdmVyc2lvbj0iMS4xIiB2aWV3Qm94PSIwIDAgMTAyNCAxMDI0IiBjbGFzcz0iaWNvbiI+PHBhdGggZmlsbD0iIzEyOTZkYiIgZD0iTTU1OC45MzMgNDM5LjQ2N2MwIDU1LjQ2NiAzOC40IDEwMC4yNjYgODcuNDY3IDExNS4yVjU5NS4yYy0yNy43MzMgNi40LTQ5LjA2NyAzNC4xMzMtNDkuMDY3IDY0IDAgMzYuMjY3IDI5Ljg2NyA2Ni4xMzMgNjYuMTM0IDY2LjEzMyAzNi4yNjYgMCA2Ni4xMzMtMjkuODY2IDY2LjEzMy02Ni4xMzMgMC0yOS44NjctMTkuMi01NS40NjctNDYuOTMzLTY0di00Mi42NjdjMzguNC0yLjEzMyA3MC40LTIxLjMzMyA5MS43MzMtNDkuMDY2bDc0LjY2NyA0Mi42NjZjMCAyLjEzNC0yLjEzNCA0LjI2Ny0yLjEzNCA2LjQgMCAzNi4yNjcgMjkuODY3IDY2LjEzNCA2Ni4xMzQgNjYuMTM0Uzk3OS4yIDU4OC44IDk3OS4yIDU1Mi41MzNjLTIuMTMzLTM2LjI2Ni0yOS44NjctNjQtNjYuMTMzLTY0LTIxLjMzNCAwLTM4LjQgMTAuNjY3LTUzLjMzNCAyNS42TDc4Ny4yIDQ3MS40NjdjNC4yNjctMTIuOCA2LjQtMjMuNDY3IDYuNC0zNi4yNjcgMC0xOS4yLTQuMjY3LTM2LjI2Ny0xMi44LTQ5LjA2N0w4NjQgMzM5LjJjMTIuOCAxMi44IDI5Ljg2NyAxOS4yIDQ2LjkzMyAxOS4yIDM2LjI2NyAwIDY2LjEzNC0yOS44NjcgNjYuMTM0LTY2LjEzM3MtMjkuODY3LTY2LjEzNC02Ni4xMzQtNjYuMTM0Uzg0NC44IDI1NiA4NDQuOCAyOTIuMjY3YzAgNC4yNjYgMi4xMzMgMTAuNjY2IDIuMTMzIDE0LjkzM0w3NjEuNiAzNTYuMjY3Yy0yMS4zMzMtMjEuMzM0LTQ5LjA2Ny0zNi4yNjctODEuMDY3LTM4LjRWMjc1LjJjMjcuNzM0LTguNTMzIDQ2LjkzNC0zNC4xMzMgNDYuOTM0LTY0IDAtMzYuMjY3LTI5Ljg2Ny02Ni4xMzMtNjYuMTM0LTY2LjEzM3MtNjQgMjkuODY2LTY0IDY4LjI2NmMwIDI5Ljg2NyAyMS4zMzQgNTUuNDY3IDQ5LjA2NyA2NHY0Ni45MzRjLTQ5LjA2NyAxMi44LTg3LjQ2NyA1OS43MzMtODcuNDY3IDExNS4yeiIvPjxwYXRoIGZpbGw9IiMxMjk2ZGIiIGQ9Ik05MTkuNDY3IDY2My40NjdDOTEzLjA2NyA3MzMuODY3IDg1Ny42IDc4Ny4yIDc4Ny4yIDc4Ny4ySDIyOC4yNjdDMTU1LjczMyA3ODcuMiA5NiA3MjcuNDY3IDk2IDY1NC45MzNjMC02Ni4xMzMgNDYuOTMzLTEyMS42IDExMC45MzMtMTMyLjI2NmwyNy43MzQtNC4yNjd2LTMyYzAtMTE5LjQ2NyA5OC4xMzMtMjE1LjQ2NyAyMTUuNDY2LTIxNS40NjcgMjcuNzM0IDAgNTMuMzM0IDQuMjY3IDc2LjggMTQuOTM0IDEwLjY2Ny0xOS4yIDIzLjQ2Ny0zOC40IDM2LjI2Ny01Ny42QzUyNi45MzMgMjEzLjMzMyA0ODguNTMzIDIwNC44IDQ0OCAyMDQuOGMtMTQ3LjIgMC0yNzAuOTMzIDExNS4yLTI4My43MzMgMjYyLjQtODMuMiAyNS42LTE0MC44IDEwNC41MzMtMTQwLjggMTkyIDAgMTEwLjkzMyA4OS42IDIwMi42NjcgMjAyLjY2NiAyMDIuNjY3aDU1OC45MzRjMTEwLjkzMyAwIDIwMC41MzMtODkuNiAyMDIuNjY2LTIwMC41MzQgMC0yLjEzMyAwLTQuMjY2IDIuMTM0LTYuNGwtNzAuNCA4LjUzNHoiLz48L3N2Zz4=;" parent="yIpsprf4zcvvTlZBt0Jq-32" vertex="1">
          <mxGeometry width="34.70899470899471" height="33.70899470899471" as="geometry" />
        </mxCell>
        <mxCell id="yIpsprf4zcvvTlZBt0Jq-34" value="Kafka消息队列集群" style="shape=image;imageAspect=0;aspect=fixed;verticalLabelPosition=bottom;verticalAlign=top;image=data:image/svg+xml,PHN2ZyB4bWxuczp4bGluaz0iaHR0cDovL3d3dy53My5vcmcvMTk5OS94bGluayIgeG1sbnM9Imh0dHA6Ly93d3cudzMub3JnLzIwMDAvc3ZnIiBoZWlnaHQ9IjIwMCIgd2lkdGg9IjIwMCIgdmVyc2lvbj0iMS4xIiB2aWV3Qm94PSIwIDAgMTAyNCAxMDI0IiBjbGFzcz0iaWNvbiI+PHBhdGggZmlsbD0iIzEyOTZkYiIgZD0iTTU1OC45MzMgNDM5LjQ2N2MwIDU1LjQ2NiAzOC40IDEwMC4yNjYgODcuNDY3IDExNS4yVjU5NS4yYy0yNy43MzMgNi40LTQ5LjA2NyAzNC4xMzMtNDkuMDY3IDY0IDAgMzYuMjY3IDI5Ljg2NyA2Ni4xMzMgNjYuMTM0IDY2LjEzMyAzNi4yNjYgMCA2Ni4xMzMtMjkuODY2IDY2LjEzMy02Ni4xMzMgMC0yOS44NjctMTkuMi01NS40NjctNDYuOTMzLTY0di00Mi42NjdjMzguNC0yLjEzMyA3MC40LTIxLjMzMyA5MS43MzMtNDkuMDY2bDc0LjY2NyA0Mi42NjZjMCAyLjEzNC0yLjEzNCA0LjI2Ny0yLjEzNCA2LjQgMCAzNi4yNjcgMjkuODY3IDY2LjEzNCA2Ni4xMzQgNjYuMTM0Uzk3OS4yIDU4OC44IDk3OS4yIDU1Mi41MzNjLTIuMTMzLTM2LjI2Ni0yOS44NjctNjQtNjYuMTMzLTY0LTIxLjMzNCAwLTM4LjQgMTAuNjY3LTUzLjMzNCAyNS42TDc4Ny4yIDQ3MS40NjdjNC4yNjctMTIuOCA2LjQtMjMuNDY3IDYuNC0zNi4yNjcgMC0xOS4yLTQuMjY3LTM2LjI2Ny0xMi44LTQ5LjA2N0w4NjQgMzM5LjJjMTIuOCAxMi44IDI5Ljg2NyAxOS4yIDQ2LjkzMyAxOS4yIDM2LjI2NyAwIDY2LjEzNC0yOS44NjcgNjYuMTM0LTY2LjEzM3MtMjkuODY3LTY2LjEzNC02Ni4xMzQtNjYuMTM0Uzg0NC44IDI1NiA4NDQuOCAyOTIuMjY3YzAgNC4yNjYgMi4xMzMgMTAuNjY2IDIuMTMzIDE0LjkzM0w3NjEuNiAzNTYuMjY3Yy0yMS4zMzMtMjEuMzM0LTQ5LjA2Ny0zNi4yNjctODEuMDY3LTM4LjRWMjc1LjJjMjcuNzM0LTguNTMzIDQ2LjkzNC0zNC4xMzMgNDYuOTM0LTY0IDAtMzYuMjY3LTI5Ljg2Ny02Ni4xMzMtNjYuMTM0LTY2LjEzM3MtNjQgMjkuODY2LTY0IDY4LjI2NmMwIDI5Ljg2NyAyMS4zMzQgNTUuNDY3IDQ5LjA2NyA2NHY0Ni45MzRjLTQ5LjA2NyAxMi44LTg3LjQ2NyA1OS43MzMtODcuNDY3IDExNS4yeiIvPjxwYXRoIGZpbGw9IiMxMjk2ZGIiIGQ9Ik05MTkuNDY3IDY2My40NjdDOTEzLjA2NyA3MzMuODY3IDg1Ny42IDc4Ny4yIDc4Ny4yIDc4Ny4ySDIyOC4yNjdDMTU1LjczMyA3ODcuMiA5NiA3MjcuNDY3IDk2IDY1NC45MzNjMC02Ni4xMzMgNDYuOTMzLTEyMS42IDExMC45MzMtMTMyLjI2NmwyNy43MzQtNC4yNjd2LTMyYzAtMTE5LjQ2NyA5OC4xMzMtMjE1LjQ2NyAyMTUuNDY2LTIxNS40NjcgMjcuNzM0IDAgNTMuMzM0IDQuMjY3IDc2LjggMTQuOTM0IDEwLjY2Ny0xOS4yIDIzLjQ2Ny0zOC40IDM2LjI2Ny01Ny42QzUyNi45MzMgMjEzLjMzMyA0ODguNTMzIDIwNC44IDQ0OCAyMDQuOGMtMTQ3LjIgMC0yNzAuOTMzIDExNS4yLTI4My43MzMgMjYyLjQtODMuMiAyNS42LTE0MC44IDEwNC41MzMtMTQwLjggMTkyIDAgMTEwLjkzMyA4OS42IDIwMi42NjcgMjAyLjY2NiAyMDIuNjY3aDU1OC45MzRjMTEwLjkzMyAwIDIwMC41MzMtODkuNiAyMDIuNjY2LTIwMC41MzQgMC0yLjEzMyAwLTQuMjY2IDIuMTM0LTYuNGwtNzAuNCA4LjUzNHoiLz48L3N2Zz4=;" parent="yIpsprf4zcvvTlZBt0Jq-32" vertex="1">
          <mxGeometry x="49.5" width="34.70899470899471" height="33.70899470899471" as="geometry" />
        </mxCell>
        <mxCell id="yIpsprf4zcvvTlZBt0Jq-35" value="" style="shape=image;imageAspect=0;aspect=fixed;verticalLabelPosition=bottom;verticalAlign=top;image=data:image/svg+xml,PHN2ZyB4bWxuczp4bGluaz0iaHR0cDovL3d3dy53My5vcmcvMTk5OS94bGluayIgeG1sbnM9Imh0dHA6Ly93d3cudzMub3JnLzIwMDAvc3ZnIiBoZWlnaHQ9IjIwMCIgd2lkdGg9IjIwMCIgdmVyc2lvbj0iMS4xIiB2aWV3Qm94PSIwIDAgMTAyNCAxMDI0IiBjbGFzcz0iaWNvbiI+PHBhdGggZmlsbD0iIzEyOTZkYiIgZD0iTTU1OC45MzMgNDM5LjQ2N2MwIDU1LjQ2NiAzOC40IDEwMC4yNjYgODcuNDY3IDExNS4yVjU5NS4yYy0yNy43MzMgNi40LTQ5LjA2NyAzNC4xMzMtNDkuMDY3IDY0IDAgMzYuMjY3IDI5Ljg2NyA2Ni4xMzMgNjYuMTM0IDY2LjEzMyAzNi4yNjYgMCA2Ni4xMzMtMjkuODY2IDY2LjEzMy02Ni4xMzMgMC0yOS44NjctMTkuMi01NS40NjctNDYuOTMzLTY0di00Mi42NjdjMzguNC0yLjEzMyA3MC40LTIxLjMzMyA5MS43MzMtNDkuMDY2bDc0LjY2NyA0Mi42NjZjMCAyLjEzNC0yLjEzNCA0LjI2Ny0yLjEzNCA2LjQgMCAzNi4yNjcgMjkuODY3IDY2LjEzNCA2Ni4xMzQgNjYuMTM0Uzk3OS4yIDU4OC44IDk3OS4yIDU1Mi41MzNjLTIuMTMzLTM2LjI2Ni0yOS44NjctNjQtNjYuMTMzLTY0LTIxLjMzNCAwLTM4LjQgMTAuNjY3LTUzLjMzNCAyNS42TDc4Ny4yIDQ3MS40NjdjNC4yNjctMTIuOCA2LjQtMjMuNDY3IDYuNC0zNi4yNjcgMC0xOS4yLTQuMjY3LTM2LjI2Ny0xMi44LTQ5LjA2N0w4NjQgMzM5LjJjMTIuOCAxMi44IDI5Ljg2NyAxOS4yIDQ2LjkzMyAxOS4yIDM2LjI2NyAwIDY2LjEzNC0yOS44NjcgNjYuMTM0LTY2LjEzM3MtMjkuODY3LTY2LjEzNC02Ni4xMzQtNjYuMTM0Uzg0NC44IDI1NiA4NDQuOCAyOTIuMjY3YzAgNC4yNjYgMi4xMzMgMTAuNjY2IDIuMTMzIDE0LjkzM0w3NjEuNiAzNTYuMjY3Yy0yMS4zMzMtMjEuMzM0LTQ5LjA2Ny0zNi4yNjctODEuMDY3LTM4LjRWMjc1LjJjMjcuNzM0LTguNTMzIDQ2LjkzNC0zNC4xMzMgNDYuOTM0LTY0IDAtMzYuMjY3LTI5Ljg2Ny02Ni4xMzMtNjYuMTM0LTY2LjEzM3MtNjQgMjkuODY2LTY0IDY4LjI2NmMwIDI5Ljg2NyAyMS4zMzQgNTUuNDY3IDQ5LjA2NyA2NHY0Ni45MzRjLTQ5LjA2NyAxMi44LTg3LjQ2NyA1OS43MzMtODcuNDY3IDExNS4yeiIvPjxwYXRoIGZpbGw9IiMxMjk2ZGIiIGQ9Ik05MTkuNDY3IDY2My40NjdDOTEzLjA2NyA3MzMuODY3IDg1Ny42IDc4Ny4yIDc4Ny4yIDc4Ny4ySDIyOC4yNjdDMTU1LjczMyA3ODcuMiA5NiA3MjcuNDY3IDk2IDY1NC45MzNjMC02Ni4xMzMgNDYuOTMzLTEyMS42IDExMC45MzMtMTMyLjI2NmwyNy43MzQtNC4yNjd2LTMyYzAtMTE5LjQ2NyA5OC4xMzMtMjE1LjQ2NyAyMTUuNDY2LTIxNS40NjcgMjcuNzM0IDAgNTMuMzM0IDQuMjY3IDc2LjggMTQuOTM0IDEwLjY2Ny0xOS4yIDIzLjQ2Ny0zOC40IDM2LjI2Ny01Ny42QzUyNi45MzMgMjEzLjMzMyA0ODguNTMzIDIwNC44IDQ0OCAyMDQuOGMtMTQ3LjIgMC0yNzAuOTMzIDExNS4yLTI4My43MzMgMjYyLjQtODMuMiAyNS42LTE0MC44IDEwNC41MzMtMTQwLjggMTkyIDAgMTEwLjkzMyA4OS42IDIwMi42NjcgMjAyLjY2NiAyMDIuNjY3aDU1OC45MzRjMTEwLjkzMyAwIDIwMC41MzMtODkuNiAyMDIuNjY2LTIwMC41MzQgMC0yLjEzMyAwLTQuMjY2IDIuMTM0LTYuNGwtNzAuNCA4LjUzNHoiLz48L3N2Zz4=;" parent="yIpsprf4zcvvTlZBt0Jq-32" vertex="1">
          <mxGeometry x="100" width="34.70899470899471" height="33.70899470899471" as="geometry" />
        </mxCell>
        <mxCell id="yIpsprf4zcvvTlZBt0Jq-36" value="" style="rounded=0;whiteSpace=wrap;html=1;fillColor=none;dashed=1;" parent="yIpsprf4zcvvTlZBt0Jq-32" vertex="1">
          <mxGeometry x="-10.5" width="161" height="39" as="geometry" />
        </mxCell>
        <mxCell id="yIpsprf4zcvvTlZBt0Jq-37" style="rounded=0;orthogonalLoop=1;jettySize=auto;html=1;entryX=0;entryY=0.5;entryDx=0;entryDy=0;exitX=1;exitY=0.5;exitDx=0;exitDy=0;exitPerimeter=0;" parent="1" source="yIpsprf4zcvvTlZBt0Jq-40" target="yIpsprf4zcvvTlZBt0Jq-22" edge="1">
          <mxGeometry relative="1" as="geometry">
            <mxPoint x="500" y="50" as="sourcePoint" />
          </mxGeometry>
        </mxCell>
        <mxCell id="yIpsprf4zcvvTlZBt0Jq-38" style="edgeStyle=none;rounded=0;orthogonalLoop=1;jettySize=auto;html=1;exitX=1;exitY=0.5;exitDx=0;exitDy=0;exitPerimeter=0;" parent="1" source="yIpsprf4zcvvTlZBt0Jq-40" edge="1">
          <mxGeometry relative="1" as="geometry">
            <mxPoint x="540" y="100" as="targetPoint" />
          </mxGeometry>
        </mxCell>
        <mxCell id="yIpsprf4zcvvTlZBt0Jq-40" value="负载均衡" style="outlineConnect=0;dashed=0;verticalLabelPosition=bottom;verticalAlign=top;align=center;html=1;shape=mxgraph.aws3.classic_load_balancer;fillColor=#1BA1E2;gradientColor=none;" parent="1" vertex="1">
          <mxGeometry x="440" y="80" width="40" height="40" as="geometry" />
        </mxCell>
        <mxCell id="yIpsprf4zcvvTlZBt0Jq-41" style="edgeStyle=orthogonalEdgeStyle;rounded=0;orthogonalLoop=1;jettySize=auto;html=1;exitX=1;exitY=0.5;exitDx=0;exitDy=0;exitPerimeter=0;entryX=0;entryY=0.516;entryDx=0;entryDy=0;entryPerimeter=0;" parent="1" source="yIpsprf4zcvvTlZBt0Jq-42" target="yIpsprf4zcvvTlZBt0Jq-69" edge="1">
          <mxGeometry relative="1" as="geometry">
            <mxPoint x="537.5" y="376.1460674157303" as="targetPoint" />
          </mxGeometry>
        </mxCell>
        <mxCell id="yIpsprf4zcvvTlZBt0Jq-42" value="负载均衡" style="outlineConnect=0;dashed=0;verticalLabelPosition=bottom;verticalAlign=top;align=center;html=1;shape=mxgraph.aws3.classic_load_balancer;fillColor=#1BA1E2;gradientColor=none;" parent="1" vertex="1">
          <mxGeometry x="440" y="360" width="40" height="40" as="geometry" />
        </mxCell>
        <mxCell id="yIpsprf4zcvvTlZBt0Jq-43" style="edgeStyle=orthogonalEdgeStyle;rounded=0;orthogonalLoop=1;jettySize=auto;html=1;exitX=1;exitY=0.5;exitDx=0;exitDy=0;" parent="1" source="yIpsprf4zcvvTlZBt0Jq-4" target="yIpsprf4zcvvTlZBt0Jq-40" edge="1">
          <mxGeometry relative="1" as="geometry" />
        </mxCell>
        <mxCell id="yIpsprf4zcvvTlZBt0Jq-44" style="edgeStyle=orthogonalEdgeStyle;rounded=0;orthogonalLoop=1;jettySize=auto;html=1;exitX=1;exitY=0.5;exitDx=0;exitDy=0;entryX=0;entryY=0.5;entryDx=0;entryDy=0;entryPerimeter=0;" parent="1" source="yIpsprf4zcvvTlZBt0Jq-4" target="yIpsprf4zcvvTlZBt0Jq-20" edge="1">
          <mxGeometry relative="1" as="geometry" />
        </mxCell>
        <mxCell id="yIpsprf4zcvvTlZBt0Jq-45" style="edgeStyle=orthogonalEdgeStyle;rounded=0;orthogonalLoop=1;jettySize=auto;html=1;exitX=1;exitY=0.5;exitDx=0;exitDy=0;entryX=0;entryY=0.5;entryDx=0;entryDy=0;entryPerimeter=0;" parent="1" source="yIpsprf4zcvvTlZBt0Jq-4" target="yIpsprf4zcvvTlZBt0Jq-42" edge="1">
          <mxGeometry relative="1" as="geometry" />
        </mxCell>
        <mxCell id="yIpsprf4zcvvTlZBt0Jq-46" value="" style="group;dashed=1;dashPattern=1 1;" parent="1" vertex="1" connectable="0">
          <mxGeometry x="760" y="101" width="160" height="40" as="geometry" />
        </mxCell>
        <mxCell id="yIpsprf4zcvvTlZBt0Jq-47" value="" style="rounded=0;whiteSpace=wrap;html=1;dashed=1;" parent="yIpsprf4zcvvTlZBt0Jq-46" vertex="1">
          <mxGeometry width="160" height="40" as="geometry" />
        </mxCell>
        <mxCell id="yIpsprf4zcvvTlZBt0Jq-48" value="" style="shape=image;imageAspect=0;aspect=fixed;verticalLabelPosition=bottom;verticalAlign=top;image=data:image/svg+xml,PHN2ZyB4bWxuczp4bGluaz0iaHR0cDovL3d3dy53My5vcmcvMTk5OS94bGluayIgeG1sbnM9Imh0dHA6Ly93d3cudzMub3JnLzIwMDAvc3ZnIiBoZWlnaHQ9IjIwMCIgd2lkdGg9IjIwMCIgdmVyc2lvbj0iMS4xIiB2aWV3Qm94PSIwIDAgMTAyNCAxMDI0IiBjbGFzcz0iaWNvbiI+PHBhdGggZmlsbD0iIzEyOTZkYiIgZD0iTTEwMjMuNzg2NjY3IDYxMS44NGMtMC40MjY2NjcgOS43NzA2NjctMTMuMzU0NjY3IDIwLjY5MzMzMy0zOS44OTMzMzQgMzQuNTYtNTQuNjEzMzMzIDI4LjQ1ODY2Ny0zMzcuNzQ5MzMzIDE0NC44OTYtMzk3Ljk5NDY2NiAxNzYuMjk4NjY3LTYwLjI4OCAzMS40MDI2NjctOTMuNzM4NjY3IDMxLjEwNC0xNDEuMzU0NjY3IDguMzItNDcuNjE2LTIyLjc0MTMzMy0zNDguODQyNjY3LTE0NC40NjkzMzMtNDAzLjExNDY2Ny0xNzAuMzY4LTI3LjA5MzMzMy0xMi45NzA2NjctNDAuOTE3MzMzLTIzLjg5MzMzMy00MS4zODY2NjYtMzQuMjE4NjY3djEwMy41MDkzMzNjMCAxMC4zMjUzMzMgMTQuMjUwNjY3IDIxLjI5MDY2NyA0MS4zODY2NjYgMzQuMjYxMzM0IDU0LjI3MiAyNS45NDEzMzMgMzU1LjU0MTMzMyAxNDcuNjI2NjY3IDQwMy4xMTQ2NjcgMTcwLjM2OCA0Ny42MTYgMjIuNzg0IDgxLjA2NjY2NyAyMy4wODI2NjcgMTQxLjM1NDY2Ny04LjM2MjY2NyA2MC4yNDUzMzMtMzEuNDAyNjY3IDM0My4zMzg2NjctMTQ3Ljc5NzMzMyAzOTcuOTk0NjY2LTE3Ni4yOTg2NjcgMjcuNzc2LTE0LjQ2NCA0MC4xMDY2NjctMjUuNzI4IDQwLjEwNjY2Ny0zNS45MjUzMzN2LTEwMi4wNTg2NjdsLTAuMjEzMzMzLTAuMDg1MzMzeiIvPjxwYXRoIGZpbGw9IiMxMjk2ZGIiIGQ9Ik0xMDIzLjc0NCA0NDMuMDkzMzMzYy0wLjQyNjY2NyA5Ljc3MDY2Ny0xMy4zNTQ2NjcgMjAuNjUwNjY3LTM5Ljg1MDY2NyAzNC41MTczMzQtNTQuNjEzMzMzIDI4LjQ1ODY2Ny0zMzcuNzQ5MzMzIDE0NC44OTYtMzk3Ljk5NDY2NiAxNzYuMjk4NjY2LTYwLjI4OCAzMS40MDI2NjctOTMuNzM4NjY3IDMxLjEwNC0xNDEuMzU0NjY3IDguMzYyNjY3LTQ3LjYxNi0yMi43NDEzMzMtMzQ4Ljg0MjY2Ny0xNDQuNDY5MzMzLTQwMy4xMTQ2NjctMTcwLjQxMDY2Ny0yNy4wOTMzMzMtMTIuOTI4LTQwLjkxNzMzMy0yMy44OTMzMzMtNDEuMzg2NjY2LTM0LjE3NnYxMDMuNTA5MzM0YzAgMTAuMzI1MzMzIDE0LjI1MDY2NyAyMS4yNDggNDEuMzg2NjY2IDM0LjIxODY2NiA1NC4yNzIgMjUuOTQxMzMzIDM1NS40OTg2NjcgMTQ3LjYyNjY2NyA0MDMuMTE0NjY3IDE3MC4zNjggNDcuNjE2IDIyLjc4NCA4MS4wNjY2NjcgMjMuMDgyNjY3IDE0MS4zNTQ2NjctOC4zMiA2MC4yNDUzMzMtMzEuNDAyNjY3IDM0My4zMzg2NjctMTQ3Ljg0IDM5Ny45OTQ2NjYtMTc2LjI5ODY2NiAyNy43NzYtMTQuNTA2NjY3IDQwLjEwNjY2Ny0yNS43NzA2NjcgNDAuMTA2NjY3LTM1Ljk2OHYtMTAyLjA1ODY2N2wtMC4yNTYtMC4wNDI2Njd6Ii8+PHBhdGggZmlsbD0iIzEyOTZkYiIgZD0iTTEwMjMuNzQ0IDI2OC4wNzQ2NjdjMC41MTItMTAuNDEwNjY3LTEzLjA5ODY2Ny0xOS41NDEzMzMtNDAuNDkwNjY3LTI5LjYxMDY2Ny01My4yNDgtMTkuNDk4NjY3LTMzNC42MzQ2NjctMTMxLjQ5ODY2Ny0zODguNTIyNjY2LTE1MS4yNTMzMzMtNTMuODg4LTE5LjcxMi03NS44MTg2NjctMTguOTAxMzMzLTEzOS4wOTMzMzQgMy44NEMzOTIuMjM0NjY3IDExMy43MDY2NjcgOTIuNjI5MzMzIDIzMS4yNTMzMzMgMzkuMzM4NjY3IDI1Mi4wNzQ2NjdjLTI2LjY2NjY2NyAxMC40OTYtMzkuNjggMjAuMTgxMzMzLTM5LjI1MzMzNCAzMC41MDY2NjZWMzg2LjEzMzMzM2MwIDEwLjMyNTMzMyAxNC4yNTA2NjcgMjEuMjQ4IDQxLjM4NjY2NyAzNC4yMTg2NjcgNTQuMjcyIDI1Ljk0MTMzMyAzNTUuNDk4NjY3IDE0Ny42NjkzMzMgNDAzLjExNDY2NyAxNzAuNDEwNjY3IDQ3LjYxNiAyMi43NDEzMzMgODEuMDY2NjY3IDIzLjA0IDE0MS4zNTQ2NjYtOC4zNjI2NjcgNjAuMjQ1MzMzLTMxLjQwMjY2NyAzNDMuMzM4NjY3LTE0Ny44NCAzOTcuOTk0NjY3LTE3Ni4yOTg2NjcgMjcuNzc2LTE0LjUwNjY2NyA0MC4xMDY2NjctMjUuNzcwNjY3IDQwLjEwNjY2Ny0zNS45NjhWMjY4LjA3NDY2N2gtMC4zNDEzMzR6TTM2Ni43MiAzNjYuMDhsMjM3LjI2OTMzMy0zNi40MzczMzMtNzEuNjggMTA1LjA4OC0xNjUuNTQ2NjY2LTY4LjY1MDY2N3ogbTUyNC44LTk0LjYzNDY2N2wtMTQwLjMzMDY2NyA1NS40NjY2NjctMTUuMjMyIDUuOTczMzMzLTE0MC4yNDUzMzMtNTUuNDY2NjY2IDE1NS4zOTItNjEuNDQgMTQwLjM3MzMzMyA1NS40NjY2NjZ6IG0tNDExLjk4OTMzMy0xMDEuNjc0NjY2bC0yMi45NTQ2NjctNDIuMzI1MzM0IDcxLjU5NDY2NyAyNy45ODkzMzQgNjcuNDk4NjY2LTIyLjEwMTMzNC0xOC4yNjEzMzMgNDMuNzMzMzM0IDY4Ljc3ODY2NyAyNS43NzA2NjYtODguNzA0IDkuMjE2LTE5Ljg4MjY2NyA0Ny43ODY2NjctMzIuMDg1MzMzLTUzLjI5MDY2Ny0xMDIuNC05LjIxNiA3Ni40MTYtMjcuNTYyNjY2eiBtLTE3Ni43NjggNTkuNzMzMzMzYzcwLjA1ODY2NyAwIDEyNi44MDUzMzMgMjEuOTczMzMzIDEyNi44MDUzMzMgNDkuMTA5MzMzcy01Ni43NDY2NjcgNDkuMTUyLTEyNi44MDUzMzMgNDkuMTUyLTEyNi44NDgtMjIuMDU4NjY3LTEyNi44NDgtNDkuMTUyYzAtMjcuMTM2IDU2Ljc4OTMzMy00OS4xNTIgMTI2Ljg0OC00OS4xNTJ6Ii8+PC9zdmc+;" parent="yIpsprf4zcvvTlZBt0Jq-46" vertex="1">
          <mxGeometry x="10" y="4" width="32" height="32" as="geometry" />
        </mxCell>
        <mxCell id="yIpsprf4zcvvTlZBt0Jq-49" value="Redis集群" style="shape=image;imageAspect=0;aspect=fixed;verticalLabelPosition=bottom;verticalAlign=top;image=data:image/svg+xml,PHN2ZyB4bWxuczp4bGluaz0iaHR0cDovL3d3dy53My5vcmcvMTk5OS94bGluayIgeG1sbnM9Imh0dHA6Ly93d3cudzMub3JnLzIwMDAvc3ZnIiBoZWlnaHQ9IjIwMCIgd2lkdGg9IjIwMCIgdmVyc2lvbj0iMS4xIiB2aWV3Qm94PSIwIDAgMTAyNCAxMDI0IiBjbGFzcz0iaWNvbiI+PHBhdGggZmlsbD0iIzEyOTZkYiIgZD0iTTEwMjMuNzg2NjY3IDYxMS44NGMtMC40MjY2NjcgOS43NzA2NjctMTMuMzU0NjY3IDIwLjY5MzMzMy0zOS44OTMzMzQgMzQuNTYtNTQuNjEzMzMzIDI4LjQ1ODY2Ny0zMzcuNzQ5MzMzIDE0NC44OTYtMzk3Ljk5NDY2NiAxNzYuMjk4NjY3LTYwLjI4OCAzMS40MDI2NjctOTMuNzM4NjY3IDMxLjEwNC0xNDEuMzU0NjY3IDguMzItNDcuNjE2LTIyLjc0MTMzMy0zNDguODQyNjY3LTE0NC40NjkzMzMtNDAzLjExNDY2Ny0xNzAuMzY4LTI3LjA5MzMzMy0xMi45NzA2NjctNDAuOTE3MzMzLTIzLjg5MzMzMy00MS4zODY2NjYtMzQuMjE4NjY3djEwMy41MDkzMzNjMCAxMC4zMjUzMzMgMTQuMjUwNjY3IDIxLjI5MDY2NyA0MS4zODY2NjYgMzQuMjYxMzM0IDU0LjI3MiAyNS45NDEzMzMgMzU1LjU0MTMzMyAxNDcuNjI2NjY3IDQwMy4xMTQ2NjcgMTcwLjM2OCA0Ny42MTYgMjIuNzg0IDgxLjA2NjY2NyAyMy4wODI2NjcgMTQxLjM1NDY2Ny04LjM2MjY2NyA2MC4yNDUzMzMtMzEuNDAyNjY3IDM0My4zMzg2NjctMTQ3Ljc5NzMzMyAzOTcuOTk0NjY2LTE3Ni4yOTg2NjcgMjcuNzc2LTE0LjQ2NCA0MC4xMDY2NjctMjUuNzI4IDQwLjEwNjY2Ny0zNS45MjUzMzN2LTEwMi4wNTg2NjdsLTAuMjEzMzMzLTAuMDg1MzMzeiIvPjxwYXRoIGZpbGw9IiMxMjk2ZGIiIGQ9Ik0xMDIzLjc0NCA0NDMuMDkzMzMzYy0wLjQyNjY2NyA5Ljc3MDY2Ny0xMy4zNTQ2NjcgMjAuNjUwNjY3LTM5Ljg1MDY2NyAzNC41MTczMzQtNTQuNjEzMzMzIDI4LjQ1ODY2Ny0zMzcuNzQ5MzMzIDE0NC44OTYtMzk3Ljk5NDY2NiAxNzYuMjk4NjY2LTYwLjI4OCAzMS40MDI2NjctOTMuNzM4NjY3IDMxLjEwNC0xNDEuMzU0NjY3IDguMzYyNjY3LTQ3LjYxNi0yMi43NDEzMzMtMzQ4Ljg0MjY2Ny0xNDQuNDY5MzMzLTQwMy4xMTQ2NjctMTcwLjQxMDY2Ny0yNy4wOTMzMzMtMTIuOTI4LTQwLjkxNzMzMy0yMy44OTMzMzMtNDEuMzg2NjY2LTM0LjE3NnYxMDMuNTA5MzM0YzAgMTAuMzI1MzMzIDE0LjI1MDY2NyAyMS4yNDggNDEuMzg2NjY2IDM0LjIxODY2NiA1NC4yNzIgMjUuOTQxMzMzIDM1NS40OTg2NjcgMTQ3LjYyNjY2NyA0MDMuMTE0NjY3IDE3MC4zNjggNDcuNjE2IDIyLjc4NCA4MS4wNjY2NjcgMjMuMDgyNjY3IDE0MS4zNTQ2NjctOC4zMiA2MC4yNDUzMzMtMzEuNDAyNjY3IDM0My4zMzg2NjctMTQ3Ljg0IDM5Ny45OTQ2NjYtMTc2LjI5ODY2NiAyNy43NzYtMTQuNTA2NjY3IDQwLjEwNjY2Ny0yNS43NzA2NjcgNDAuMTA2NjY3LTM1Ljk2OHYtMTAyLjA1ODY2N2wtMC4yNTYtMC4wNDI2Njd6Ii8+PHBhdGggZmlsbD0iIzEyOTZkYiIgZD0iTTEwMjMuNzQ0IDI2OC4wNzQ2NjdjMC41MTItMTAuNDEwNjY3LTEzLjA5ODY2Ny0xOS41NDEzMzMtNDAuNDkwNjY3LTI5LjYxMDY2Ny01My4yNDgtMTkuNDk4NjY3LTMzNC42MzQ2NjctMTMxLjQ5ODY2Ny0zODguNTIyNjY2LTE1MS4yNTMzMzMtNTMuODg4LTE5LjcxMi03NS44MTg2NjctMTguOTAxMzMzLTEzOS4wOTMzMzQgMy44NEMzOTIuMjM0NjY3IDExMy43MDY2NjcgOTIuNjI5MzMzIDIzMS4yNTMzMzMgMzkuMzM4NjY3IDI1Mi4wNzQ2NjdjLTI2LjY2NjY2NyAxMC40OTYtMzkuNjggMjAuMTgxMzMzLTM5LjI1MzMzNCAzMC41MDY2NjZWMzg2LjEzMzMzM2MwIDEwLjMyNTMzMyAxNC4yNTA2NjcgMjEuMjQ4IDQxLjM4NjY2NyAzNC4yMTg2NjcgNTQuMjcyIDI1Ljk0MTMzMyAzNTUuNDk4NjY3IDE0Ny42NjkzMzMgNDAzLjExNDY2NyAxNzAuNDEwNjY3IDQ3LjYxNiAyMi43NDEzMzMgODEuMDY2NjY3IDIzLjA0IDE0MS4zNTQ2NjYtOC4zNjI2NjcgNjAuMjQ1MzMzLTMxLjQwMjY2NyAzNDMuMzM4NjY3LTE0Ny44NCAzOTcuOTk0NjY3LTE3Ni4yOTg2NjcgMjcuNzc2LTE0LjUwNjY2NyA0MC4xMDY2NjctMjUuNzcwNjY3IDQwLjEwNjY2Ny0zNS45NjhWMjY4LjA3NDY2N2gtMC4zNDEzMzR6TTM2Ni43MiAzNjYuMDhsMjM3LjI2OTMzMy0zNi40MzczMzMtNzEuNjggMTA1LjA4OC0xNjUuNTQ2NjY2LTY4LjY1MDY2N3ogbTUyNC44LTk0LjYzNDY2N2wtMTQwLjMzMDY2NyA1NS40NjY2NjctMTUuMjMyIDUuOTczMzMzLTE0MC4yNDUzMzMtNTUuNDY2NjY2IDE1NS4zOTItNjEuNDQgMTQwLjM3MzMzMyA1NS40NjY2NjZ6IG0tNDExLjk4OTMzMy0xMDEuNjc0NjY2bC0yMi45NTQ2NjctNDIuMzI1MzM0IDcxLjU5NDY2NyAyNy45ODkzMzQgNjcuNDk4NjY2LTIyLjEwMTMzNC0xOC4yNjEzMzMgNDMuNzMzMzM0IDY4Ljc3ODY2NyAyNS43NzA2NjYtODguNzA0IDkuMjE2LTE5Ljg4MjY2NyA0Ny43ODY2NjctMzIuMDg1MzMzLTUzLjI5MDY2Ny0xMDIuNC05LjIxNiA3Ni40MTYtMjcuNTYyNjY2eiBtLTE3Ni43NjggNTkuNzMzMzMzYzcwLjA1ODY2NyAwIDEyNi44MDUzMzMgMjEuOTczMzMzIDEyNi44MDUzMzMgNDkuMTA5MzMzcy01Ni43NDY2NjcgNDkuMTUyLTEyNi44MDUzMzMgNDkuMTUyLTEyNi44NDgtMjIuMDU4NjY3LTEyNi44NDgtNDkuMTUyYzAtMjcuMTM2IDU2Ljc4OTMzMy00OS4xNTIgMTI2Ljg0OC00OS4xNTJ6Ii8+PC9zdmc+;" parent="yIpsprf4zcvvTlZBt0Jq-46" vertex="1">
          <mxGeometry x="60" y="4" width="32" height="32" as="geometry" />
        </mxCell>
        <mxCell id="yIpsprf4zcvvTlZBt0Jq-50" value="" style="shape=image;imageAspect=0;aspect=fixed;verticalLabelPosition=bottom;verticalAlign=top;image=data:image/svg+xml,PHN2ZyB4bWxuczp4bGluaz0iaHR0cDovL3d3dy53My5vcmcvMTk5OS94bGluayIgeG1sbnM9Imh0dHA6Ly93d3cudzMub3JnLzIwMDAvc3ZnIiBoZWlnaHQ9IjIwMCIgd2lkdGg9IjIwMCIgdmVyc2lvbj0iMS4xIiB2aWV3Qm94PSIwIDAgMTAyNCAxMDI0IiBjbGFzcz0iaWNvbiI+PHBhdGggZmlsbD0iIzEyOTZkYiIgZD0iTTEwMjMuNzg2NjY3IDYxMS44NGMtMC40MjY2NjcgOS43NzA2NjctMTMuMzU0NjY3IDIwLjY5MzMzMy0zOS44OTMzMzQgMzQuNTYtNTQuNjEzMzMzIDI4LjQ1ODY2Ny0zMzcuNzQ5MzMzIDE0NC44OTYtMzk3Ljk5NDY2NiAxNzYuMjk4NjY3LTYwLjI4OCAzMS40MDI2NjctOTMuNzM4NjY3IDMxLjEwNC0xNDEuMzU0NjY3IDguMzItNDcuNjE2LTIyLjc0MTMzMy0zNDguODQyNjY3LTE0NC40NjkzMzMtNDAzLjExNDY2Ny0xNzAuMzY4LTI3LjA5MzMzMy0xMi45NzA2NjctNDAuOTE3MzMzLTIzLjg5MzMzMy00MS4zODY2NjYtMzQuMjE4NjY3djEwMy41MDkzMzNjMCAxMC4zMjUzMzMgMTQuMjUwNjY3IDIxLjI5MDY2NyA0MS4zODY2NjYgMzQuMjYxMzM0IDU0LjI3MiAyNS45NDEzMzMgMzU1LjU0MTMzMyAxNDcuNjI2NjY3IDQwMy4xMTQ2NjcgMTcwLjM2OCA0Ny42MTYgMjIuNzg0IDgxLjA2NjY2NyAyMy4wODI2NjcgMTQxLjM1NDY2Ny04LjM2MjY2NyA2MC4yNDUzMzMtMzEuNDAyNjY3IDM0My4zMzg2NjctMTQ3Ljc5NzMzMyAzOTcuOTk0NjY2LTE3Ni4yOTg2NjcgMjcuNzc2LTE0LjQ2NCA0MC4xMDY2NjctMjUuNzI4IDQwLjEwNjY2Ny0zNS45MjUzMzN2LTEwMi4wNTg2NjdsLTAuMjEzMzMzLTAuMDg1MzMzeiIvPjxwYXRoIGZpbGw9IiMxMjk2ZGIiIGQ9Ik0xMDIzLjc0NCA0NDMuMDkzMzMzYy0wLjQyNjY2NyA5Ljc3MDY2Ny0xMy4zNTQ2NjcgMjAuNjUwNjY3LTM5Ljg1MDY2NyAzNC41MTczMzQtNTQuNjEzMzMzIDI4LjQ1ODY2Ny0zMzcuNzQ5MzMzIDE0NC44OTYtMzk3Ljk5NDY2NiAxNzYuMjk4NjY2LTYwLjI4OCAzMS40MDI2NjctOTMuNzM4NjY3IDMxLjEwNC0xNDEuMzU0NjY3IDguMzYyNjY3LTQ3LjYxNi0yMi43NDEzMzMtMzQ4Ljg0MjY2Ny0xNDQuNDY5MzMzLTQwMy4xMTQ2NjctMTcwLjQxMDY2Ny0yNy4wOTMzMzMtMTIuOTI4LTQwLjkxNzMzMy0yMy44OTMzMzMtNDEuMzg2NjY2LTM0LjE3NnYxMDMuNTA5MzM0YzAgMTAuMzI1MzMzIDE0LjI1MDY2NyAyMS4yNDggNDEuMzg2NjY2IDM0LjIxODY2NiA1NC4yNzIgMjUuOTQxMzMzIDM1NS40OTg2NjcgMTQ3LjYyNjY2NyA0MDMuMTE0NjY3IDE3MC4zNjggNDcuNjE2IDIyLjc4NCA4MS4wNjY2NjcgMjMuMDgyNjY3IDE0MS4zNTQ2NjctOC4zMiA2MC4yNDUzMzMtMzEuNDAyNjY3IDM0My4zMzg2NjctMTQ3Ljg0IDM5Ny45OTQ2NjYtMTc2LjI5ODY2NiAyNy43NzYtMTQuNTA2NjY3IDQwLjEwNjY2Ny0yNS43NzA2NjcgNDAuMTA2NjY3LTM1Ljk2OHYtMTAyLjA1ODY2N2wtMC4yNTYtMC4wNDI2Njd6Ii8+PHBhdGggZmlsbD0iIzEyOTZkYiIgZD0iTTEwMjMuNzQ0IDI2OC4wNzQ2NjdjMC41MTItMTAuNDEwNjY3LTEzLjA5ODY2Ny0xOS41NDEzMzMtNDAuNDkwNjY3LTI5LjYxMDY2Ny01My4yNDgtMTkuNDk4NjY3LTMzNC42MzQ2NjctMTMxLjQ5ODY2Ny0zODguNTIyNjY2LTE1MS4yNTMzMzMtNTMuODg4LTE5LjcxMi03NS44MTg2NjctMTguOTAxMzMzLTEzOS4wOTMzMzQgMy44NEMzOTIuMjM0NjY3IDExMy43MDY2NjcgOTIuNjI5MzMzIDIzMS4yNTMzMzMgMzkuMzM4NjY3IDI1Mi4wNzQ2NjdjLTI2LjY2NjY2NyAxMC40OTYtMzkuNjggMjAuMTgxMzMzLTM5LjI1MzMzNCAzMC41MDY2NjZWMzg2LjEzMzMzM2MwIDEwLjMyNTMzMyAxNC4yNTA2NjcgMjEuMjQ4IDQxLjM4NjY2NyAzNC4yMTg2NjcgNTQuMjcyIDI1Ljk0MTMzMyAzNTUuNDk4NjY3IDE0Ny42NjkzMzMgNDAzLjExNDY2NyAxNzAuNDEwNjY3IDQ3LjYxNiAyMi43NDEzMzMgODEuMDY2NjY3IDIzLjA0IDE0MS4zNTQ2NjYtOC4zNjI2NjcgNjAuMjQ1MzMzLTMxLjQwMjY2NyAzNDMuMzM4NjY3LTE0Ny44NCAzOTcuOTk0NjY3LTE3Ni4yOTg2NjcgMjcuNzc2LTE0LjUwNjY2NyA0MC4xMDY2NjctMjUuNzcwNjY3IDQwLjEwNjY2Ny0zNS45NjhWMjY4LjA3NDY2N2gtMC4zNDEzMzR6TTM2Ni43MiAzNjYuMDhsMjM3LjI2OTMzMy0zNi40MzczMzMtNzEuNjggMTA1LjA4OC0xNjUuNTQ2NjY2LTY4LjY1MDY2N3ogbTUyNC44LTk0LjYzNDY2N2wtMTQwLjMzMDY2NyA1NS40NjY2NjctMTUuMjMyIDUuOTczMzMzLTE0MC4yNDUzMzMtNTUuNDY2NjY2IDE1NS4zOTItNjEuNDQgMTQwLjM3MzMzMyA1NS40NjY2NjZ6IG0tNDExLjk4OTMzMy0xMDEuNjc0NjY2bC0yMi45NTQ2NjctNDIuMzI1MzM0IDcxLjU5NDY2NyAyNy45ODkzMzQgNjcuNDk4NjY2LTIyLjEwMTMzNC0xOC4yNjEzMzMgNDMuNzMzMzM0IDY4Ljc3ODY2NyAyNS43NzA2NjYtODguNzA0IDkuMjE2LTE5Ljg4MjY2NyA0Ny43ODY2NjctMzIuMDg1MzMzLTUzLjI5MDY2Ny0xMDIuNC05LjIxNiA3Ni40MTYtMjcuNTYyNjY2eiBtLTE3Ni43NjggNTkuNzMzMzMzYzcwLjA1ODY2NyAwIDEyNi44MDUzMzMgMjEuOTczMzMzIDEyNi44MDUzMzMgNDkuMTA5MzMzcy01Ni43NDY2NjcgNDkuMTUyLTEyNi44MDUzMzMgNDkuMTUyLTEyNi44NDgtMjIuMDU4NjY3LTEyNi44NDgtNDkuMTUyYzAtMjcuMTM2IDU2Ljc4OTMzMy00OS4xNTIgMTI2Ljg0OC00OS4xNTJ6Ii8+PC9zdmc+;" parent="yIpsprf4zcvvTlZBt0Jq-46" vertex="1">
          <mxGeometry x="110" y="4" width="32" height="32" as="geometry" />
        </mxCell>
        <mxCell id="yIpsprf4zcvvTlZBt0Jq-51" value="" style="group" parent="1" vertex="1" connectable="0">
          <mxGeometry x="520" y="80" width="160" height="40" as="geometry" />
        </mxCell>
        <mxCell id="yIpsprf4zcvvTlZBt0Jq-52" value="" style="rounded=0;whiteSpace=wrap;html=1;dashed=1;" parent="yIpsprf4zcvvTlZBt0Jq-51" vertex="1">
          <mxGeometry width="160" height="40" as="geometry" />
        </mxCell>
        <mxCell id="yIpsprf4zcvvTlZBt0Jq-53" value="" style="group" parent="yIpsprf4zcvvTlZBt0Jq-51" vertex="1" connectable="0">
          <mxGeometry x="10.5" y="4.4" width="139" height="31.2" as="geometry" />
        </mxCell>
        <mxCell id="yIpsprf4zcvvTlZBt0Jq-54" value="" style="sketch=0;outlineConnect=0;fontColor=#232F3E;gradientColor=none;fillColor=#1BA1E2;strokeColor=none;dashed=0;verticalLabelPosition=bottom;verticalAlign=top;align=center;html=1;fontSize=12;fontStyle=0;aspect=fixed;pointerEvents=1;shape=mxgraph.aws4.servers;" parent="yIpsprf4zcvvTlZBt0Jq-53" vertex="1">
          <mxGeometry width="31.2" height="31.2" as="geometry" />
        </mxCell>
        <mxCell id="yIpsprf4zcvvTlZBt0Jq-55" value="航司SaaS服务集群" style="sketch=0;outlineConnect=0;fontColor=#232F3E;gradientColor=none;fillColor=#1BA1E2;strokeColor=none;dashed=0;verticalLabelPosition=bottom;verticalAlign=top;align=center;html=1;fontSize=12;fontStyle=0;aspect=fixed;pointerEvents=1;shape=mxgraph.aws4.servers;" parent="yIpsprf4zcvvTlZBt0Jq-53" vertex="1">
          <mxGeometry x="50" width="31.2" height="31.2" as="geometry" />
        </mxCell>
        <mxCell id="yIpsprf4zcvvTlZBt0Jq-56" value="" style="sketch=0;outlineConnect=0;fontColor=#232F3E;gradientColor=none;fillColor=#1BA1E2;strokeColor=none;dashed=0;verticalLabelPosition=bottom;verticalAlign=top;align=center;html=1;fontSize=12;fontStyle=0;aspect=fixed;pointerEvents=1;shape=mxgraph.aws4.servers;" parent="yIpsprf4zcvvTlZBt0Jq-53" vertex="1">
          <mxGeometry x="100" width="31.2" height="31.2" as="geometry" />
        </mxCell>
        <mxCell id="yIpsprf4zcvvTlZBt0Jq-57" value="" style="group;dashed=1;dashPattern=1 1;" parent="1" vertex="1" connectable="0">
          <mxGeometry x="759" y="171" width="161" height="40" as="geometry" />
        </mxCell>
        <mxCell id="yIpsprf4zcvvTlZBt0Jq-58" value="" style="group" parent="yIpsprf4zcvvTlZBt0Jq-57" vertex="1" connectable="0">
          <mxGeometry x="10" width="140" height="40" as="geometry" />
        </mxCell>
        <mxCell id="yIpsprf4zcvvTlZBt0Jq-59" value="" style="shape=image;imageAspect=0;aspect=fixed;verticalLabelPosition=bottom;verticalAlign=top;image=data:image/svg+xml,PHN2ZyB4bWxuczp4bGluaz0iaHR0cDovL3d3dy53My5vcmcvMTk5OS94bGluayIgeG1sbnM9Imh0dHA6Ly93d3cudzMub3JnLzIwMDAvc3ZnIiBoZWlnaHQ9IjIwMCIgd2lkdGg9IjIwMCIgdmVyc2lvbj0iMS4xIiB2aWV3Qm94PSIwIDAgMTAyNCAxMDI0IiBjbGFzcz0iaWNvbiI+PHBhdGggZmlsbD0iIzEyOTZkYiIgZD0iTTkxNS4yIDg0NC44bC02LjQtOC41MzMzMzNjLTYuNC0xMC42NjY2NjctMTIuOC0xOS4yLTIxLjMzMzMzMy0yNy43MzMzMzQtNi40LTYuNC0yMS4zMzMzMzMtMTQuOTMzMzMzLTIzLjQ2NjY2Ny0yMy40NjY2NjYgNi40IDAgMTAuNjY2NjY3IDAgMTQuOTMzMzMzLTIuMTMzMzM0IDguNTMzMzMzLTIuMTMzMzMzIDE0LjkzMzMzMyAwIDIzLjQ2NjY2Ny0yLjEzMzMzMyA0LjI2NjY2NyAwIDYuNC0yLjEzMzMzMyAxMC42NjY2NjctMi4xMzMzMzN2LTIuMTMzMzM0Yy00LjI2NjY2Ny00LjI2NjY2Ny02LjQtMTAuNjY2NjY3LTEwLjY2NjY2Ny0xNC45MzMzMzMtMTAuNjY2NjY3LTEyLjgtMjEuMzMzMzMzLTIzLjQ2NjY2Ny0zNC4xMzMzMzMtMzQuMTMzMzMzLTYuNC02LjQtMTQuOTMzMzMzLTEwLjY2NjY2Ny0yMS4zMzMzMzQtMTQuOTMzMzM0LTIuMTMzMzMzLTIuMTMzMzMzLTYuNC0yLjEzMzMzMy04LjUzMzMzMy02LjQtMi4xMzMzMzMtNi40LTYuNC0xMi44LTYuNC0xOS4yLTQuMjY2NjY3LTE0LjkzMzMzMy0xMC42NjY2NjctMjkuODY2NjY3LTE0LjkzMzMzMy00NC44LTIuMTMzMzMzLTEwLjY2NjY2Ny00LjI2NjY2Ny0xOS4yLTguNTMzMzM0LTI5Ljg2NjY2Ni0xNy4wNjY2NjctNDAuNTMzMzMzLTQyLjY2NjY2Ny03NC42NjY2NjctNzguOTMzMzMzLTEwMC4yNjY2NjctOC41MzMzMzMtNi40LTE3LjA2NjY2Ny0xMC42NjY2NjctMjcuNzMzMzMzLTEyLjgtNi40IDAtMTAuNjY2NjY3LTIuMTMzMzMzLTE3LjA2NjY2Ny0yLjEzMzMzMy00LjI2NjY2Ny0yLjEzMzMzMy02LjQtNi40LTguNTMzMzMzLTguNTMzMzM0LTEwLjY2NjY2Ny04LjUzMzMzMy0yMy40NjY2NjctMTQuOTMzMzMzLTM2LjI2NjY2Ny0xOS4yLTguNTMzMzMzLTIuMTMzMzMzLTE3LjA2NjY2NyAyLjEzMzMzMy0xOS4yIDEwLjY2NjY2Ny04LjUzMzMzMyAxNC45MzMzMzMgNi40IDMyIDEwLjY2NjY2NyA0MC41MzMzMzMgNC4yNjY2NjcgNi40IDYuNCAxMi44IDguNTMzMzMzIDE5LjIgMi4xMzMzMzMgNC4yNjY2NjcgMi4xMzMzMzMgOC41MzMzMzMgMi4xMzMzMzMgMTIuOCAyLjEzMzMzMyAxMC42NjY2NjcgNC4yNjY2NjcgMjMuNDY2NjY3IDguNTMzMzM0IDM0LjEzMzMzNCAyLjEzMzMzMyA2LjQgNC4yNjY2NjcgMTAuNjY2NjY3IDYuNCAxNC45MzMzMzMgMi4xMzMzMzMgMi4xMzMzMzMgNC4yNjY2NjcgNi40IDQuMjY2NjY2IDguNTMzMzMzLTIuMTMzMzMzIDYuNC02LjQgMTAuNjY2NjY3LTYuNCAxNy4wNjY2NjctMTAuNjY2NjY3IDI1LjYtMTAuNjY2NjY3IDU1LjQ2NjY2Ny0yLjEzMzMzMyA4My4yIDIuMTMzMzMzIDYuNCAxMC42NjY2NjcgMjEuMzMzMzMzIDIxLjMzMzMzMyAxNy4wNjY2NjcgMTAuNjY2NjY3LTQuMjY2NjY3IDEwLjY2NjY2Ny0xNy4wNjY2NjcgMTQuOTMzMzM0LTI5Ljg2NjY2NyAwLTIuMTMzMzMzIDIuMTMzMzMzLTQuMjY2NjY3IDIuMTMzMzMzLTYuNCAyLjEzMzMzMyA2LjQgNC4yNjY2NjcgMTQuOTMzMzMzIDYuNCAyMS4zMzMzMzMgNi40IDEyLjggMTQuOTMzMzMzIDI1LjYgMjUuNiAzNi4yNjY2NjcgNC4yNjY2NjcgNi40IDEwLjY2NjY2NyAxMC42NjY2NjcgMTQuOTMzMzMzIDE3LjA2NjY2NyAxMC42NjY2NjcgOC41MzMzMzMgNC4yNjY2NjcgMTAuNjY2NjY3IDgzLjIgNDkuMDY2NjY2IDAgMCAzMiAxNC45MzMzMzMgNDYuOTMzMzM0IDIxLjMzMzMzNCAxNC45MzMzMzMgNi40IDI5Ljg2NjY2NyAxMC42NjY2NjcgNDQuOCAxNC45MzMzMzMgMi4xMzMzMzMgMCAyLjEzMzMzMy00LjI2NjY2NyAyLjEzMzMzMy02LjR6TTY5My4zMzMzMzMgNTUwLjRjLTIuMTMzMzMzLTguNTMzMzMzLTYuNC0xOS4yLTEwLjY2NjY2Ni0yNS42LTYuNC02LjQgMi4xMzMzMzMtMTIuOCAxMC42NjY2NjYtMTAuNjY2NjY3aDIuMTMzMzM0YzQuMjY2NjY3IDAgNi40IDQuMjY2NjY3IDguNTMzMzMzIDYuNCAwIDIuMTMzMzMzIDIuMTMzMzMzIDIuMTMzMzMzIDIuMTMzMzMzIDQuMjY2NjY3IDIuMTMzMzMzIDEwLjY2NjY2Ny0yLjEzMzMzMyAyMy40NjY2NjctMTIuOCAyNS42eiIvPjxwYXRoIGZpbGw9IiMxMjk2ZGIiIGQ9Ik00Ni45MzMzMzMgMjkwLjEzMzMzM2EzNzEuMiAxMTkuNDY2NjY3IDAgMSAwIDc0Mi40IDAgMzcxLjIgMTE5LjQ2NjY2NyAwIDEgMC03NDIuNCAwWiIvPjxwYXRoIGZpbGw9IiMxMjk2ZGIiIGQ9Ik02NzguNCA3OTMuNmgtNi40Yy0xNC45MzMzMzMgMC01My4zMzMzMzMtNi40LTc2LjgtNTUuNDY2NjY3di00LjI2NjY2NmMtNi40LTE3LjA2NjY2Ny0xMC42NjY2NjctMzYuMjY2NjY3LTEwLjY2NjY2Ny01NS40NjY2NjctNDkuMDY2NjY3IDguNTMzMzMzLTEwNi42NjY2NjcgMTIuOC0xNjYuNCAxMi44LTE2NC4yNjY2NjcgMC0zMDIuOTMzMzMzLTM0LjEzMzMzMy0zNTItODEuMDY2NjY3LTguNTMzMzMzLTYuNC0xOS4yLTIuMTMzMzMzLTE5LjIgOC41MzMzMzR2MTEzLjA2NjY2NmMwIDY2LjEzMzMzMyAxNjYuNCAxMTkuNDY2NjY3IDM3MS4yIDExOS40NjY2NjcgMTEwLjkzMzMzMyAwIDIxMS4yLTE0LjkzMzMzMyAyNzcuMzMzMzM0LTQwLjUzMzMzMy02LjQtNC4yNjY2NjctMTAuNjY2NjY3LTEwLjY2NjY2Ny0xNy4wNjY2NjctMTcuMDY2NjY3ek00MTguMTMzMzMzIDYzMS40NjY2NjdjNjQgMCAxMjMuNzMzMzMzLTQuMjY2NjY3IDE3NC45MzMzMzQtMTQuOTMzMzM0di0yLjEzMzMzM2MwLTIuMTMzMzMzLTIuMTMzMzMzLTQuMjY2NjY3LTIuMTMzMzM0LTYuNC00LjI2NjY2Ny0xMi44LTYuNC0yNS42LTEwLjY2NjY2Ni00MC41MzMzMzMgMC0yLjEzMzMzMy0yLjEzMzMzMy02LjQtMi4xMzMzMzQtOC41MzMzMzQgMC0yLjEzMzMzMy0yLjEzMzMzMy0yLjEzMzMzMy0yLjEzMzMzMy00LjI2NjY2NnYtNC4yNjY2NjdsLTIuMTMzMzMzLTIuMTMzMzMzYy02LjQtMTIuOC0yNy43MzMzMzMtNDYuOTMzMzMzLTE0LjkzMzMzNC04Ny40NjY2NjctNDQuOCA2LjQtOTEuNzMzMzMzIDguNTMzMzMzLTE0Mi45MzMzMzMgOC41MzMzMzMtMTY0LjI2NjY2NyAwLTMwMi45MzMzMzMtMzQuMTMzMzMzLTM1Mi04MS4wNjY2NjYtOC41MzMzMzMtNi40LTE5LjItMi4xMzMzMzMtMTkuMiA4LjUzMzMzM1Y1MTJjMCA2Ni4xMzMzMzMgMTY2LjQgMTE5LjQ2NjY2NyAzNzMuMzMzMzMzIDExOS40NjY2Njd6Ii8+PC9zdmc+;" parent="yIpsprf4zcvvTlZBt0Jq-58" vertex="1">
          <mxGeometry y="3.068783068783069" width="33.86243386243386" height="33.86243386243386" as="geometry" />
        </mxCell>
        <mxCell id="yIpsprf4zcvvTlZBt0Jq-60" value="Mysql数据库集群" style="shape=image;imageAspect=0;aspect=fixed;verticalLabelPosition=bottom;verticalAlign=top;image=data:image/svg+xml,PHN2ZyB4bWxuczp4bGluaz0iaHR0cDovL3d3dy53My5vcmcvMTk5OS94bGluayIgeG1sbnM9Imh0dHA6Ly93d3cudzMub3JnLzIwMDAvc3ZnIiBoZWlnaHQ9IjIwMCIgd2lkdGg9IjIwMCIgdmVyc2lvbj0iMS4xIiB2aWV3Qm94PSIwIDAgMTAyNCAxMDI0IiBjbGFzcz0iaWNvbiI+PHBhdGggZmlsbD0iIzEyOTZkYiIgZD0iTTkxNS4yIDg0NC44bC02LjQtOC41MzMzMzNjLTYuNC0xMC42NjY2NjctMTIuOC0xOS4yLTIxLjMzMzMzMy0yNy43MzMzMzQtNi40LTYuNC0yMS4zMzMzMzMtMTQuOTMzMzMzLTIzLjQ2NjY2Ny0yMy40NjY2NjYgNi40IDAgMTAuNjY2NjY3IDAgMTQuOTMzMzMzLTIuMTMzMzM0IDguNTMzMzMzLTIuMTMzMzMzIDE0LjkzMzMzMyAwIDIzLjQ2NjY2Ny0yLjEzMzMzMyA0LjI2NjY2NyAwIDYuNC0yLjEzMzMzMyAxMC42NjY2NjctMi4xMzMzMzN2LTIuMTMzMzM0Yy00LjI2NjY2Ny00LjI2NjY2Ny02LjQtMTAuNjY2NjY3LTEwLjY2NjY2Ny0xNC45MzMzMzMtMTAuNjY2NjY3LTEyLjgtMjEuMzMzMzMzLTIzLjQ2NjY2Ny0zNC4xMzMzMzMtMzQuMTMzMzMzLTYuNC02LjQtMTQuOTMzMzMzLTEwLjY2NjY2Ny0yMS4zMzMzMzQtMTQuOTMzMzM0LTIuMTMzMzMzLTIuMTMzMzMzLTYuNC0yLjEzMzMzMy04LjUzMzMzMy02LjQtMi4xMzMzMzMtNi40LTYuNC0xMi44LTYuNC0xOS4yLTQuMjY2NjY3LTE0LjkzMzMzMy0xMC42NjY2NjctMjkuODY2NjY3LTE0LjkzMzMzMy00NC44LTIuMTMzMzMzLTEwLjY2NjY2Ny00LjI2NjY2Ny0xOS4yLTguNTMzMzM0LTI5Ljg2NjY2Ni0xNy4wNjY2NjctNDAuNTMzMzMzLTQyLjY2NjY2Ny03NC42NjY2NjctNzguOTMzMzMzLTEwMC4yNjY2NjctOC41MzMzMzMtNi40LTE3LjA2NjY2Ny0xMC42NjY2NjctMjcuNzMzMzMzLTEyLjgtNi40IDAtMTAuNjY2NjY3LTIuMTMzMzMzLTE3LjA2NjY2Ny0yLjEzMzMzMy00LjI2NjY2Ny0yLjEzMzMzMy02LjQtNi40LTguNTMzMzMzLTguNTMzMzM0LTEwLjY2NjY2Ny04LjUzMzMzMy0yMy40NjY2NjctMTQuOTMzMzMzLTM2LjI2NjY2Ny0xOS4yLTguNTMzMzMzLTIuMTMzMzMzLTE3LjA2NjY2NyAyLjEzMzMzMy0xOS4yIDEwLjY2NjY2Ny04LjUzMzMzMyAxNC45MzMzMzMgNi40IDMyIDEwLjY2NjY2NyA0MC41MzMzMzMgNC4yNjY2NjcgNi40IDYuNCAxMi44IDguNTMzMzMzIDE5LjIgMi4xMzMzMzMgNC4yNjY2NjcgMi4xMzMzMzMgOC41MzMzMzMgMi4xMzMzMzMgMTIuOCAyLjEzMzMzMyAxMC42NjY2NjcgNC4yNjY2NjcgMjMuNDY2NjY3IDguNTMzMzM0IDM0LjEzMzMzNCAyLjEzMzMzMyA2LjQgNC4yNjY2NjcgMTAuNjY2NjY3IDYuNCAxNC45MzMzMzMgMi4xMzMzMzMgMi4xMzMzMzMgNC4yNjY2NjcgNi40IDQuMjY2NjY2IDguNTMzMzMzLTIuMTMzMzMzIDYuNC02LjQgMTAuNjY2NjY3LTYuNCAxNy4wNjY2NjctMTAuNjY2NjY3IDI1LjYtMTAuNjY2NjY3IDU1LjQ2NjY2Ny0yLjEzMzMzMyA4My4yIDIuMTMzMzMzIDYuNCAxMC42NjY2NjcgMjEuMzMzMzMzIDIxLjMzMzMzMyAxNy4wNjY2NjcgMTAuNjY2NjY3LTQuMjY2NjY3IDEwLjY2NjY2Ny0xNy4wNjY2NjcgMTQuOTMzMzM0LTI5Ljg2NjY2NyAwLTIuMTMzMzMzIDIuMTMzMzMzLTQuMjY2NjY3IDIuMTMzMzMzLTYuNCAyLjEzMzMzMyA2LjQgNC4yNjY2NjcgMTQuOTMzMzMzIDYuNCAyMS4zMzMzMzMgNi40IDEyLjggMTQuOTMzMzMzIDI1LjYgMjUuNiAzNi4yNjY2NjcgNC4yNjY2NjcgNi40IDEwLjY2NjY2NyAxMC42NjY2NjcgMTQuOTMzMzMzIDE3LjA2NjY2NyAxMC42NjY2NjcgOC41MzMzMzMgNC4yNjY2NjcgMTAuNjY2NjY3IDgzLjIgNDkuMDY2NjY2IDAgMCAzMiAxNC45MzMzMzMgNDYuOTMzMzM0IDIxLjMzMzMzNCAxNC45MzMzMzMgNi40IDI5Ljg2NjY2NyAxMC42NjY2NjcgNDQuOCAxNC45MzMzMzMgMi4xMzMzMzMgMCAyLjEzMzMzMy00LjI2NjY2NyAyLjEzMzMzMy02LjR6TTY5My4zMzMzMzMgNTUwLjRjLTIuMTMzMzMzLTguNTMzMzMzLTYuNC0xOS4yLTEwLjY2NjY2Ni0yNS42LTYuNC02LjQgMi4xMzMzMzMtMTIuOCAxMC42NjY2NjYtMTAuNjY2NjY3aDIuMTMzMzM0YzQuMjY2NjY3IDAgNi40IDQuMjY2NjY3IDguNTMzMzMzIDYuNCAwIDIuMTMzMzMzIDIuMTMzMzMzIDIuMTMzMzMzIDIuMTMzMzMzIDQuMjY2NjY3IDIuMTMzMzMzIDEwLjY2NjY2Ny0yLjEzMzMzMyAyMy40NjY2NjctMTIuOCAyNS42eiIvPjxwYXRoIGZpbGw9IiMxMjk2ZGIiIGQ9Ik00Ni45MzMzMzMgMjkwLjEzMzMzM2EzNzEuMiAxMTkuNDY2NjY3IDAgMSAwIDc0Mi40IDAgMzcxLjIgMTE5LjQ2NjY2NyAwIDEgMC03NDIuNCAwWiIvPjxwYXRoIGZpbGw9IiMxMjk2ZGIiIGQ9Ik02NzguNCA3OTMuNmgtNi40Yy0xNC45MzMzMzMgMC01My4zMzMzMzMtNi40LTc2LjgtNTUuNDY2NjY3di00LjI2NjY2NmMtNi40LTE3LjA2NjY2Ny0xMC42NjY2NjctMzYuMjY2NjY3LTEwLjY2NjY2Ny01NS40NjY2NjctNDkuMDY2NjY3IDguNTMzMzMzLTEwNi42NjY2NjcgMTIuOC0xNjYuNCAxMi44LTE2NC4yNjY2NjcgMC0zMDIuOTMzMzMzLTM0LjEzMzMzMy0zNTItODEuMDY2NjY3LTguNTMzMzMzLTYuNC0xOS4yLTIuMTMzMzMzLTE5LjIgOC41MzMzMzR2MTEzLjA2NjY2NmMwIDY2LjEzMzMzMyAxNjYuNCAxMTkuNDY2NjY3IDM3MS4yIDExOS40NjY2NjcgMTEwLjkzMzMzMyAwIDIxMS4yLTE0LjkzMzMzMyAyNzcuMzMzMzM0LTQwLjUzMzMzMy02LjQtNC4yNjY2NjctMTAuNjY2NjY3LTEwLjY2NjY2Ny0xNy4wNjY2NjctMTcuMDY2NjY3ek00MTguMTMzMzMzIDYzMS40NjY2NjdjNjQgMCAxMjMuNzMzMzMzLTQuMjY2NjY3IDE3NC45MzMzMzQtMTQuOTMzMzM0di0yLjEzMzMzM2MwLTIuMTMzMzMzLTIuMTMzMzMzLTQuMjY2NjY3LTIuMTMzMzM0LTYuNC00LjI2NjY2Ny0xMi44LTYuNC0yNS42LTEwLjY2NjY2Ni00MC41MzMzMzMgMC0yLjEzMzMzMy0yLjEzMzMzMy02LjQtMi4xMzMzMzQtOC41MzMzMzQgMC0yLjEzMzMzMy0yLjEzMzMzMy0yLjEzMzMzMy0yLjEzMzMzMy00LjI2NjY2NnYtNC4yNjY2NjdsLTIuMTMzMzMzLTIuMTMzMzMzYy02LjQtMTIuOC0yNy43MzMzMzMtNDYuOTMzMzMzLTE0LjkzMzMzNC04Ny40NjY2NjctNDQuOCA2LjQtOTEuNzMzMzMzIDguNTMzMzMzLTE0Mi45MzMzMzMgOC41MzMzMzMtMTY0LjI2NjY2NyAwLTMwMi45MzMzMzMtMzQuMTMzMzMzLTM1Mi04MS4wNjY2NjYtOC41MzMzMzMtNi40LTE5LjItMi4xMzMzMzMtMTkuMiA4LjUzMzMzM1Y1MTJjMCA2Ni4xMzMzMzMgMTY2LjQgMTE5LjQ2NjY2NyAzNzMuMzMzMzMzIDExOS40NjY2Njd6Ii8+PC9zdmc+;" parent="yIpsprf4zcvvTlZBt0Jq-58" vertex="1">
          <mxGeometry x="50" y="3.068783068783069" width="33.86243386243386" height="33.86243386243386" as="geometry" />
        </mxCell>
        <mxCell id="yIpsprf4zcvvTlZBt0Jq-61" value="" style="shape=image;imageAspect=0;aspect=fixed;verticalLabelPosition=bottom;verticalAlign=top;image=data:image/svg+xml,PHN2ZyB4bWxuczp4bGluaz0iaHR0cDovL3d3dy53My5vcmcvMTk5OS94bGluayIgeG1sbnM9Imh0dHA6Ly93d3cudzMub3JnLzIwMDAvc3ZnIiBoZWlnaHQ9IjIwMCIgd2lkdGg9IjIwMCIgdmVyc2lvbj0iMS4xIiB2aWV3Qm94PSIwIDAgMTAyNCAxMDI0IiBjbGFzcz0iaWNvbiI+PHBhdGggZmlsbD0iIzEyOTZkYiIgZD0iTTkxNS4yIDg0NC44bC02LjQtOC41MzMzMzNjLTYuNC0xMC42NjY2NjctMTIuOC0xOS4yLTIxLjMzMzMzMy0yNy43MzMzMzQtNi40LTYuNC0yMS4zMzMzMzMtMTQuOTMzMzMzLTIzLjQ2NjY2Ny0yMy40NjY2NjYgNi40IDAgMTAuNjY2NjY3IDAgMTQuOTMzMzMzLTIuMTMzMzM0IDguNTMzMzMzLTIuMTMzMzMzIDE0LjkzMzMzMyAwIDIzLjQ2NjY2Ny0yLjEzMzMzMyA0LjI2NjY2NyAwIDYuNC0yLjEzMzMzMyAxMC42NjY2NjctMi4xMzMzMzN2LTIuMTMzMzM0Yy00LjI2NjY2Ny00LjI2NjY2Ny02LjQtMTAuNjY2NjY3LTEwLjY2NjY2Ny0xNC45MzMzMzMtMTAuNjY2NjY3LTEyLjgtMjEuMzMzMzMzLTIzLjQ2NjY2Ny0zNC4xMzMzMzMtMzQuMTMzMzMzLTYuNC02LjQtMTQuOTMzMzMzLTEwLjY2NjY2Ny0yMS4zMzMzMzQtMTQuOTMzMzM0LTIuMTMzMzMzLTIuMTMzMzMzLTYuNC0yLjEzMzMzMy04LjUzMzMzMy02LjQtMi4xMzMzMzMtNi40LTYuNC0xMi44LTYuNC0xOS4yLTQuMjY2NjY3LTE0LjkzMzMzMy0xMC42NjY2NjctMjkuODY2NjY3LTE0LjkzMzMzMy00NC44LTIuMTMzMzMzLTEwLjY2NjY2Ny00LjI2NjY2Ny0xOS4yLTguNTMzMzM0LTI5Ljg2NjY2Ni0xNy4wNjY2NjctNDAuNTMzMzMzLTQyLjY2NjY2Ny03NC42NjY2NjctNzguOTMzMzMzLTEwMC4yNjY2NjctOC41MzMzMzMtNi40LTE3LjA2NjY2Ny0xMC42NjY2NjctMjcuNzMzMzMzLTEyLjgtNi40IDAtMTAuNjY2NjY3LTIuMTMzMzMzLTE3LjA2NjY2Ny0yLjEzMzMzMy00LjI2NjY2Ny0yLjEzMzMzMy02LjQtNi40LTguNTMzMzMzLTguNTMzMzM0LTEwLjY2NjY2Ny04LjUzMzMzMy0yMy40NjY2NjctMTQuOTMzMzMzLTM2LjI2NjY2Ny0xOS4yLTguNTMzMzMzLTIuMTMzMzMzLTE3LjA2NjY2NyAyLjEzMzMzMy0xOS4yIDEwLjY2NjY2Ny04LjUzMzMzMyAxNC45MzMzMzMgNi40IDMyIDEwLjY2NjY2NyA0MC41MzMzMzMgNC4yNjY2NjcgNi40IDYuNCAxMi44IDguNTMzMzMzIDE5LjIgMi4xMzMzMzMgNC4yNjY2NjcgMi4xMzMzMzMgOC41MzMzMzMgMi4xMzMzMzMgMTIuOCAyLjEzMzMzMyAxMC42NjY2NjcgNC4yNjY2NjcgMjMuNDY2NjY3IDguNTMzMzM0IDM0LjEzMzMzNCAyLjEzMzMzMyA2LjQgNC4yNjY2NjcgMTAuNjY2NjY3IDYuNCAxNC45MzMzMzMgMi4xMzMzMzMgMi4xMzMzMzMgNC4yNjY2NjcgNi40IDQuMjY2NjY2IDguNTMzMzMzLTIuMTMzMzMzIDYuNC02LjQgMTAuNjY2NjY3LTYuNCAxNy4wNjY2NjctMTAuNjY2NjY3IDI1LjYtMTAuNjY2NjY3IDU1LjQ2NjY2Ny0yLjEzMzMzMyA4My4yIDIuMTMzMzMzIDYuNCAxMC42NjY2NjcgMjEuMzMzMzMzIDIxLjMzMzMzMyAxNy4wNjY2NjcgMTAuNjY2NjY3LTQuMjY2NjY3IDEwLjY2NjY2Ny0xNy4wNjY2NjcgMTQuOTMzMzM0LTI5Ljg2NjY2NyAwLTIuMTMzMzMzIDIuMTMzMzMzLTQuMjY2NjY3IDIuMTMzMzMzLTYuNCAyLjEzMzMzMyA2LjQgNC4yNjY2NjcgMTQuOTMzMzMzIDYuNCAyMS4zMzMzMzMgNi40IDEyLjggMTQuOTMzMzMzIDI1LjYgMjUuNiAzNi4yNjY2NjcgNC4yNjY2NjcgNi40IDEwLjY2NjY2NyAxMC42NjY2NjcgMTQuOTMzMzMzIDE3LjA2NjY2NyAxMC42NjY2NjcgOC41MzMzMzMgNC4yNjY2NjcgMTAuNjY2NjY3IDgzLjIgNDkuMDY2NjY2IDAgMCAzMiAxNC45MzMzMzMgNDYuOTMzMzM0IDIxLjMzMzMzNCAxNC45MzMzMzMgNi40IDI5Ljg2NjY2NyAxMC42NjY2NjcgNDQuOCAxNC45MzMzMzMgMi4xMzMzMzMgMCAyLjEzMzMzMy00LjI2NjY2NyAyLjEzMzMzMy02LjR6TTY5My4zMzMzMzMgNTUwLjRjLTIuMTMzMzMzLTguNTMzMzMzLTYuNC0xOS4yLTEwLjY2NjY2Ni0yNS42LTYuNC02LjQgMi4xMzMzMzMtMTIuOCAxMC42NjY2NjYtMTAuNjY2NjY3aDIuMTMzMzM0YzQuMjY2NjY3IDAgNi40IDQuMjY2NjY3IDguNTMzMzMzIDYuNCAwIDIuMTMzMzMzIDIuMTMzMzMzIDIuMTMzMzMzIDIuMTMzMzMzIDQuMjY2NjY3IDIuMTMzMzMzIDEwLjY2NjY2Ny0yLjEzMzMzMyAyMy40NjY2NjctMTIuOCAyNS42eiIvPjxwYXRoIGZpbGw9IiMxMjk2ZGIiIGQ9Ik00Ni45MzMzMzMgMjkwLjEzMzMzM2EzNzEuMiAxMTkuNDY2NjY3IDAgMSAwIDc0Mi40IDAgMzcxLjIgMTE5LjQ2NjY2NyAwIDEgMC03NDIuNCAwWiIvPjxwYXRoIGZpbGw9IiMxMjk2ZGIiIGQ9Ik02NzguNCA3OTMuNmgtNi40Yy0xNC45MzMzMzMgMC01My4zMzMzMzMtNi40LTc2LjgtNTUuNDY2NjY3di00LjI2NjY2NmMtNi40LTE3LjA2NjY2Ny0xMC42NjY2NjctMzYuMjY2NjY3LTEwLjY2NjY2Ny01NS40NjY2NjctNDkuMDY2NjY3IDguNTMzMzMzLTEwNi42NjY2NjcgMTIuOC0xNjYuNCAxMi44LTE2NC4yNjY2NjcgMC0zMDIuOTMzMzMzLTM0LjEzMzMzMy0zNTItODEuMDY2NjY3LTguNTMzMzMzLTYuNC0xOS4yLTIuMTMzMzMzLTE5LjIgOC41MzMzMzR2MTEzLjA2NjY2NmMwIDY2LjEzMzMzMyAxNjYuNCAxMTkuNDY2NjY3IDM3MS4yIDExOS40NjY2NjcgMTEwLjkzMzMzMyAwIDIxMS4yLTE0LjkzMzMzMyAyNzcuMzMzMzM0LTQwLjUzMzMzMy02LjQtNC4yNjY2NjctMTAuNjY2NjY3LTEwLjY2NjY2Ny0xNy4wNjY2NjctMTcuMDY2NjY3ek00MTguMTMzMzMzIDYzMS40NjY2NjdjNjQgMCAxMjMuNzMzMzMzLTQuMjY2NjY3IDE3NC45MzMzMzQtMTQuOTMzMzM0di0yLjEzMzMzM2MwLTIuMTMzMzMzLTIuMTMzMzMzLTQuMjY2NjY3LTIuMTMzMzM0LTYuNC00LjI2NjY2Ny0xMi44LTYuNC0yNS42LTEwLjY2NjY2Ni00MC41MzMzMzMgMC0yLjEzMzMzMy0yLjEzMzMzMy02LjQtMi4xMzMzMzQtOC41MzMzMzQgMC0yLjEzMzMzMy0yLjEzMzMzMy0yLjEzMzMzMy0yLjEzMzMzMy00LjI2NjY2NnYtNC4yNjY2NjdsLTIuMTMzMzMzLTIuMTMzMzMzYy02LjQtMTIuOC0yNy43MzMzMzMtNDYuOTMzMzMzLTE0LjkzMzMzNC04Ny40NjY2NjctNDQuOCA2LjQtOTEuNzMzMzMzIDguNTMzMzMzLTE0Mi45MzMzMzMgOC41MzMzMzMtMTY0LjI2NjY2NyAwLTMwMi45MzMzMzMtMzQuMTMzMzMzLTM1Mi04MS4wNjY2NjYtOC41MzMzMzMtNi40LTE5LjItMi4xMzMzMzMtMTkuMiA4LjUzMzMzM1Y1MTJjMCA2Ni4xMzMzMzMgMTY2LjQgMTE5LjQ2NjY2NyAzNzMuMzMzMzMzIDExOS40NjY2Njd6Ii8+PC9zdmc+;" parent="yIpsprf4zcvvTlZBt0Jq-58" vertex="1">
          <mxGeometry x="100" y="3.068783068783069" width="33.86243386243386" height="33.86243386243386" as="geometry" />
        </mxCell>
        <mxCell id="yIpsprf4zcvvTlZBt0Jq-62" value="" style="rounded=0;whiteSpace=wrap;html=1;fillColor=none;dashed=1;" parent="yIpsprf4zcvvTlZBt0Jq-57" vertex="1">
          <mxGeometry width="161" height="40" as="geometry" />
        </mxCell>
        <mxCell id="yIpsprf4zcvvTlZBt0Jq-68" value="" style="group" parent="1" vertex="1" connectable="0">
          <mxGeometry x="520" y="359.99595505617975" width="160" height="38.76404494382024" as="geometry" />
        </mxCell>
        <mxCell id="yIpsprf4zcvvTlZBt0Jq-69" value="" style="rounded=0;whiteSpace=wrap;html=1;dashed=1;" parent="yIpsprf4zcvvTlZBt0Jq-68" vertex="1">
          <mxGeometry width="160" height="38.764044943820224" as="geometry" />
        </mxCell>
        <mxCell id="yIpsprf4zcvvTlZBt0Jq-70" value="" style="sketch=0;outlineConnect=0;fontColor=#232F3E;gradientColor=none;fillColor=#1BA1E2;strokeColor=none;dashed=0;verticalLabelPosition=bottom;verticalAlign=top;align=center;html=1;fontSize=12;fontStyle=0;aspect=fixed;pointerEvents=1;shape=mxgraph.aws4.servers;" parent="yIpsprf4zcvvTlZBt0Jq-68" vertex="1">
          <mxGeometry x="10.5" y="4.264044943820238" width="30.235955056179776" height="30.235955056179776" as="geometry" />
        </mxCell>
        <mxCell id="yIpsprf4zcvvTlZBt0Jq-71" value="协同中心服务集群" style="sketch=0;outlineConnect=0;fontColor=#232F3E;gradientColor=none;fillColor=#1BA1E2;strokeColor=none;dashed=0;verticalLabelPosition=bottom;verticalAlign=top;align=center;html=1;fontSize=12;fontStyle=0;aspect=fixed;pointerEvents=1;shape=mxgraph.aws4.servers;" parent="yIpsprf4zcvvTlZBt0Jq-68" vertex="1">
          <mxGeometry x="60.5" y="4.264044943820238" width="30.235955056179776" height="30.235955056179776" as="geometry" />
        </mxCell>
        <mxCell id="yIpsprf4zcvvTlZBt0Jq-72" value="" style="sketch=0;outlineConnect=0;fontColor=#232F3E;gradientColor=none;fillColor=#1BA1E2;strokeColor=none;dashed=0;verticalLabelPosition=bottom;verticalAlign=top;align=center;html=1;fontSize=12;fontStyle=0;aspect=fixed;pointerEvents=1;shape=mxgraph.aws4.servers;" parent="yIpsprf4zcvvTlZBt0Jq-68" vertex="1">
          <mxGeometry x="110.5" y="4.264044943820238" width="30.235955056179776" height="30.235955056179776" as="geometry" />
        </mxCell>
        <mxCell id="yIpsprf4zcvvTlZBt0Jq-73" value="应用服务器集群" style="text;html=1;strokeColor=none;fillColor=none;align=center;verticalAlign=middle;whiteSpace=wrap;rounded=0;" parent="1" vertex="1">
          <mxGeometry x="400" y="424" width="310" height="30" as="geometry" />
        </mxCell>
        <mxCell id="yIpsprf4zcvvTlZBt0Jq-74" value="中间件&amp;amp;数据库集群" style="text;html=1;strokeColor=none;fillColor=none;align=center;verticalAlign=middle;whiteSpace=wrap;rounded=0;" parent="1" vertex="1">
          <mxGeometry x="750" y="59" width="180" height="30" as="geometry" />
        </mxCell>
        <mxCell id="yIpsprf4zcvvTlZBt0Jq-75" value="" style="rounded=0;whiteSpace=wrap;html=1;fillColor=none;dashed=1;" parent="1" vertex="1">
          <mxGeometry x="750" y="381" width="180" height="50" as="geometry" />
        </mxCell>
        <mxCell id="yIpsprf4zcvvTlZBt0Jq-76" value="监控和运维应用" style="text;html=1;strokeColor=none;fillColor=none;align=center;verticalAlign=middle;whiteSpace=wrap;rounded=0;dashed=1;" parent="1" vertex="1">
          <mxGeometry x="750" y="431" width="180" height="30" as="geometry" />
        </mxCell>
        <mxCell id="yIpsprf4zcvvTlZBt0Jq-77" value="" style="shape=image;imageAspect=0;aspect=fixed;verticalLabelPosition=bottom;verticalAlign=top;image=data:image/svg+xml,PHN2ZyB4bWxuczp4bGluaz0iaHR0cDovL3d3dy53My5vcmcvMTk5OS94bGluayIgeG1sbnM9Imh0dHA6Ly93d3cudzMub3JnLzIwMDAvc3ZnIiBoZWlnaHQ9IjIwMCIgd2lkdGg9IjIwMCIgdmVyc2lvbj0iMS4xIiB2aWV3Qm94PSIwIDAgMTAyNCAxMDI0IiBjbGFzcz0iaWNvbiI+PHBhdGggZmlsbD0iIzEyOTZkYiIgZD0iTTQ2NS42ODUzMzMgMzgzLjY1ODY2N2MwIDMuMTM2IDM3LjYxMDY2Ny0yMC45MDY2NjcgMzcuNjEwNjY3LTc1LjQxMzMzNGExODQuNzI1MzMzIDE4NC43MjUzMzMgMCAwIDEgMTAuOTY1MzMzLTc1Ljk0NjY2NiA3MzkuOTQ2NjY3IDczOS45NDY2NjcgMCAwIDEgOTIuMTE3MzM0IDEyNy44NTA2NjZjMjIuOTk3MzMzIDUwLjEzMzMzMyAzOS41NTIgODUuMzMzMzMzIDI0LjIxMzMzMyAxNTIuNzI1MzM0YTEwOC41MDEzMzMgMTA4LjUwMTMzMyAwIDAgMS0xMy4yMjY2NjcgMzIuMjEzMzMzIDE1OC40NjQgMTU4LjQ2NCAwIDAgMS03OC4zNzg2NjYgNjQuOTZjMS45Mi0xNy40MDggMjIuOTk3MzMzLTYyLjE2NTMzMy04LjcwNC04Ny4wODI2NjctMjAuNzE0NjY3LTE3LjQwOC0zOC44MjY2NjctMjcuNjkwNjY3LTMyLjc0NjY2Ny02OS42NTMzMzMgMy4zMjgtMTAuMDkwNjY3IDguMDIxMzMzLTE5LjQ5ODY2NyAxNC4xMjI2NjctMjguMjAyNjY3LTkuMDY2NjY3IDMuMTE0NjY3LTY0LjQyNjY2NyAyNS42LTc1LjI0MjY2NyA4MS4zMjI2NjdhMTQ0Ljg3NDY2NyAxNDQuODc0NjY3IDAgMCAwIDI0Ljc0NjY2NyA5OS4wOTMzMzNjLTEyLjU0NC0wLjg3NDY2Ny02MS40ODI2NjctNy44NTA2NjctODIuMjE4NjY3LTgyLjE5NzMzMy03LjMxNzMzMy00Mi4zMjUzMzMtMTUuNDg4LTY5LjY3NDY2NyAzNC44MzczMzMtMTQwLjg4NTMzMyAxNy41Nzg2NjctMTguMzA0IDI3LjE1NzMzMy00Mi42NjY2NjcgMjYuODE2LTY3LjkyNTMzNCAyLjQzMi0xLjM4NjY2NyAyNy44NjEzMzMgMi45NjUzMzMgMjUuMDg4IDY5LjEyek01OTcuMzMzMzMzIDcyOC4yOTg2NjdjMCA0NC41ODY2NjctNDEuMTA5MzMzIDgwLjgxMDY2Ny05MS43NzYgODAuODEwNjY2LTUwLjY4OCAwLTkxLjc3Ni0zNi4yMjQtOTEuNzc2LTgwLjgxMDY2Nk0zNjguODUzMzMzIDY2OS4wNzczMzNoMjczLjIzNzMzNHY0Ny44OTMzMzRIMzY4Ljg1MzMzM3oiLz48cGF0aCBmaWxsPSIjMTI5NmRiIiBkPSJNMjg5LjA4OCA1NjUuOTczMzMzczIxMi44MjEzMzMgNjkuNjc0NjY3IDQyOC40MTYgMGMwIDEzLjA3NzMzMy0yNi4zMDQgNzYuOC00OS42NDI2NjcgODcuMDgyNjY3SDM0MC42MjkzMzNzLTQ0LjA1MzMzMy00NC4wNTMzMzMtNTEuNTQxMzMzLTg3LjA2MTMzM3oiLz48cGF0aCBmaWxsPSIjMTI5NmRiIiBkPSJNMTkyLjk2IDIzMy4xNzMzMzNhNTIuOTQ5MzMzIDUyLjk0OTMzMyAwIDAgMSA3LjE0NjY2NyAxMDUuNDI5MzM0bDIuNDMyLTQuMDUzMzM0Yy0xMDIuOTMzMzMzIDE2NS45NzMzMzMtNTEuOTA0IDM4NCAxMTQuMjQgNDg2LjkxMmEzNTMuODEzMzMzIDM1My44MTMzMzMgMCAwIDAgNDEyLjkwNjY2Ni0yOC45MDY2NjYgMzIuMzg0IDMyLjM4NCAwIDAgMSA0NS42MzIgMC44NTMzMzNjMTIuMzczMzMzIDEyLjkwNjY2NyAxMS44NCAzMy4yOC0wLjg3NDY2NiA0NS42NTMzMzMtMS4wNDUzMzMgMS4wNDUzMzMtMi4yNjEzMzMgMS45Mi0zLjMwNjY2NyAyLjc3MzMzNGE0MTcuOTYyNjY3IDQxNy45NjI2NjcgMCAwIDEtMjY3Ljg0IDk2LjY0QzI3Mi41NTQ2NjcgOTM4LjY2NjY2NyA4NS4zMzMzMzMgNzUxLjQ2NjY2NyA4NS4zMzMzMzMgNTIwLjcyNTMzM2MwLTc1LjMwNjY2NyAyMC4zMDkzMzMtMTQ5LjMzMzMzMyA1OC44NTg2NjctMjEzLjkwOTMzM2E1Mi45NzA2NjcgNTIuOTcwNjY3IDAgMCAxIDQ4Ljc2OC03My42eiBtNjY2Ljk4NjY2NyA2OS41MDRhNDE4LjYwMjY2NyA0MTguNjAyNjY3IDAgMCAxIDYxLjMxMiAyMTguMDI2NjY3IDQxNC4zNTczMzMgNDE0LjM1NzMzMyAwIDAgMS0zNS4wMDggMTY3LjYxNiA1Mi45NDkzMzMgNTIuOTQ5MzMzIDAgMSAxLTU0LjY5ODY2Ny0zNS43NzYgMzQ4LjI4OCAzNDguMjg4IDAgMCAwIDI1LjQyOTMzMy0xMzEuODRjMC0xOTUuMi0xNTguMjkzMzMzLTM1My43MDY2NjctMzUzLjcwNjY2Ni0zNTMuNzA2NjY3LTY0LjkzODY2NyAwLTEyOC44NTMzMzMgMTcuOTQxMzMzLTE4NC4yMzQ2NjcgNTEuNzMzMzM0YTMyLjM2MjY2NyAzMi4zNjI2NjcgMCAwIDEtNDMuNzEyLTEzLjA1NiAzMi4xMjggMzIuMTI4IDAgMCAxIDEwLjExMi00MS44MTMzMzRjMTk2Ljk0OTMzMy0xMjAuMzIgNDU0LjE4NjY2Ny01OC4xNTQ2NjcgNTc0LjUwNjY2NyAxMzguODE2eiIvPjwvc3ZnPg==;" parent="1" vertex="1">
          <mxGeometry x="760" y="386" width="40" height="40" as="geometry" />
        </mxCell>
        <mxCell id="yIpsprf4zcvvTlZBt0Jq-78" value="" style="rounded=0;whiteSpace=wrap;html=1;fillColor=none;dashed=1;" parent="1" vertex="1">
          <mxGeometry x="759.5" y="311" width="161" height="40" as="geometry" />
        </mxCell>
        <mxCell id="yIpsprf4zcvvTlZBt0Jq-79" value="文件存储集群" style="shape=image;imageAspect=0;aspect=fixed;verticalLabelPosition=bottom;verticalAlign=top;image=data:image/svg+xml,PHN2ZyB4bWxucz0iaHR0cDovL3d3dy53My5vcmcvMjAwMC9zdmciIHZpZXdCb3g9IjAgMCAxNjIuNjEyIDI0LjQ2NSI+PHBhdGggZmlsbD0iI2M3MmM0OCIgZD0iTTUyLjc1MS40MTRoOS4xMDh2MjMuNjNoLTkuMTA4ek00MS43MTEuNzRsLTE4LjQ4OCA5LjkyYS45MTkuOTE5IDAgMCAxLS44NTYgMEwzLjg3OS43NEEyLjgwOCAyLjgwOCAwIDAgMCAyLjU1OC40MTRoLS4wMjNBMi40IDIuNCAwIDAgMCAwIDIuNjQxdjIxLjM3Nmg5LjFWMTMuODQyYS45MTguOTE4IDAgMCAxIDEuMzg1LS42ODJsMTAuMzYxIDUuNTY4YTMuNjM0IDMuNjM0IDAgMCAwIDMuMzM2LjAyOGwxMC45MzMtNS42MzRhLjkxNy45MTcgMCAwIDEgMS4zNzEuNjl2MTAuMjA1aDkuMVYyLjY0MUEyLjQgMi40IDAgMCAwIDQzLjA1NS40MTRoLS4wMjNhMi44MDggMi44MDggMCAwIDAtMS4zMjEuMzI2em02NS41NjQtLjMyNmgtOS4yMzd2MTAuNzU1YS45MTMuOTEzIDAgMCAxLTEuMzM4LjcwNkw3Mi43NjIuNjc1YTIuODI0IDIuODI0IDAgMCAwLTEuMTkxLS4yNjFoLS4wMTZhMi40IDIuNCAwIDAgMC0yLjUzNSAyLjIyN3YyMS4zNzdoOS4xNjNWMTMuMjc1YS45MTQuOTE0IDAgMCAxIDEuMzM3LS43MDdsMjQuMDMyIDExLjJhMi44MTMgMi44MTMgMCAwIDAgMS4xODguMjYgMi40IDIuNCAwIDAgMCAyLjUzNS0yLjIyN3ptNy4xNjEgMjMuNjNWLjQxNGg0LjE5MXYyMy42M3ptMjguODU2LjQyMWMtMTEuMjc0IDAtMTkuMjcyLTQuNy0xOS4yNzItMTIuMjMyQzEyNC4wMiA0Ljc0MSAxMzIuMDY2IDAgMTQzLjI5MiAwczE5LjMyIDQuNyAxOS4zMiAxMi4yMzMtNy45MDIgMTIuMjMyLTE5LjMyIDEyLjIzMnptMC0yMS4zMzNjLTguMzgzIDAtMTQuODQgMy4yMTctMTQuODQgOS4xIDAgNS45MjYgNi40NTcgOS4xIDE0Ljg0IDkuMXMxNC44ODctMy4xNzQgMTQuODg3LTkuMWMwLTUuODgzLTYuNTA0LTkuMS0xNC44ODctOS4xeiIvPjwvc3ZnPg==;spacingTop=11;" parent="1" vertex="1">
          <mxGeometry x="806.16" y="326" width="66.67" height="10" as="geometry" />
        </mxCell>
        <mxCell id="yIpsprf4zcvvTlZBt0Jq-80" value="" style="shape=image;imageAspect=0;aspect=fixed;verticalLabelPosition=bottom;verticalAlign=top;image=data:image/svg+xml,PHN2ZyB4bWxuczp4bGluaz0iaHR0cDovL3d3dy53My5vcmcvMTk5OS94bGluayIgeG1sbnM9Imh0dHA6Ly93d3cudzMub3JnLzIwMDAvc3ZnIiBoZWlnaHQ9IjIwMCIgd2lkdGg9IjIwMCIgdmVyc2lvbj0iMS4xIiB2aWV3Qm94PSIwIDAgMTAyNCAxMDI0IiBjbGFzcz0iaWNvbiI+PHBhdGggZmlsbD0iIzEyOTZkYiIgZD0iTTg5Ny43MDY2NjcgMTAyMy41NzMzMzNIMTc4LjM0NjY2N2w0MjEuNTQ2NjY2LTUwNi4wMjY2NjZjMTgwLjQ4IDExNy43NiAyOTcuODEzMzMzIDMwMC4zNzMzMzMgMjk3LjgxMzMzNCA1MDYuMDI2NjY2eiBtMC0xMDIxLjg2NjY2NkgxMzEuNDEzMzMzdjkxOS40NjY2NjZ6Ii8+PC9zdmc+;" parent="1" vertex="1">
          <mxGeometry x="828" y="389.76" width="30" height="30" as="geometry" />
        </mxCell>
        <mxCell id="yIpsprf4zcvvTlZBt0Jq-81" value="" style="shape=image;imageAspect=0;aspect=fixed;verticalLabelPosition=bottom;verticalAlign=top;image=data:image/svg+xml,PHN2ZyB4bWxuczp4bGluaz0iaHR0cDovL3d3dy53My5vcmcvMTk5OS94bGluayIgeG1sbnM9Imh0dHA6Ly93d3cudzMub3JnLzIwMDAvc3ZnIiBoZWlnaHQ9IjIwMCIgd2lkdGg9IjIwMCIgdmVyc2lvbj0iMS4xIiB2aWV3Qm94PSIwIDAgMTAyNCAxMDI0IiBjbGFzcz0iaWNvbiI+PHBhdGggZmlsbD0iIzEyOTZkYiIgZD0iTTQyLjY2NjY2NyA1MDUuNmMwIDUxLjIgNi40IDEwOC44IDIzLjQyNCAxNTMuNkg0MTMuMDEzMzMzYzEyLjgtNTEuMiAxNy4wNDUzMzMtOTUuOTU3MzMzIDE3LjA0NTMzNC0xNDcuMmE2NDguNDA1MzMzIDY0OC40MDUzMzMgMCAwIDAtMTcuMDQ1MzM0LTE0Ny4ySDU5LjczMzMzM0M0OS4wNjY2NjcgNDA5LjYgNDIuNjY2NjY3IDQ1NC40IDQyLjY2NjY2NyA1MDUuNnogbTY5OC4xNTQ2NjYtMTQwLjhINDc2Ljg4NTMzM2MxMi43NTczMzMgNDQuOCAxNy4wMjQgOTUuOTU3MzMzIDE3LjAyNCAxNDcuMnMtNi40IDk1Ljk1NzMzMy0xNy4wMjQgMTQ3LjJoMjYzLjkxNDY2N2M4My4wMDggMCAxNDYuODgtNjMuOTc4NjY3IDE0Ni44OC0xNDcuMiAwLTgzLjIyMTMzMy02My44NzItMTQ3LjItMTQ2Ljg4LTE0Ny4yaDAuMDIxMzMzek05NS44NTA2NjcgMjk0LjRoMzAwLjE2Yy0zNi4yMDI2NjctNzYuOC03Ni42MjkzMzMtMTQ3LjItMTIzLjUyLTIwNC44LTc2LjU4NjY2NyA1MS4yLTE0Mi41NDkzMzMgMTIxLjYtMTc2LjU5NzMzNCAyMDQuOGgtMC4wNDI2NjZ6IG02OTguMTU0NjY2IDBjNzYuNjI5MzMzIDAgMTQwLjQ4LTMyIDE4Ny4zMDY2NjctODMuMkM4ODcuNjggODMuMiA3MzAuMTc2IDAgNTUzLjQ5MzMzMyAwYy04Ny4yNTMzMzMgMC0xNTcuNTA0IDE5LjItMjI5Ljg2NjY2NiA1Ny42IDU5LjU4NCA2NCAxMDAuMDUzMzMzIDE0Ny4yIDEyOS44MzQ2NjYgMjMwLjRsMzQwLjU0NCA2LjR6TTg5LjQ5MzMzMyA3MjkuNmgzMDAuMTE3MzM0Yy0yOS44MDI2NjcgNzYuOC03MC4yMjkzMzMgMTQ3LjItMTIzLjQ1NiAxOTguNC03MC4yMjkzMzMtNDQuOC0xMzYuMjEzMzMzLTExNS4yLTE3Ni42NC0xOTguNHogbTcwNC41MzMzMzQgMGM3Ni42MjkzMzMgMCAxNDAuNDggMzIgMTg3LjMwNjY2NiA4My4yLTkzLjY1MzMzMyAxMjcuOTU3MzMzLTI1Ny41MzYgMjExLjItNDI3Ljg0IDIxMS4yLTg3LjI1MzMzMyAwLTE1Ny41MDQtMjUuNi0yMjkuODY2NjY2LTU3LjYgNTkuNTg0LTYzLjk3ODY2NyAxMDAuMDUzMzMzLTE0Ny4yIDEyOS44MzQ2NjYtMjMwLjRsMzQwLjU2NTMzNC02LjR6Ii8+PC9zdmc+;" parent="1" vertex="1">
          <mxGeometry x="890" y="389.76" width="30" height="30" as="geometry" />
        </mxCell>
        <mxCell id="yIpsprf4zcvvTlZBt0Jq-82" style="edgeStyle=orthogonalEdgeStyle;rounded=0;orthogonalLoop=1;jettySize=auto;html=1;exitX=1;exitY=0.5;exitDx=0;exitDy=0;entryX=0;entryY=0.5;entryDx=0;entryDy=0;curved=1;" parent="1" source="yIpsprf4zcvvTlZBt0Jq-83" target="yIpsprf4zcvvTlZBt0Jq-12" edge="1">
          <mxGeometry relative="1" as="geometry" />
        </mxCell>
        <mxCell id="yIpsprf4zcvvTlZBt0Jq-83" value="" style="image;html=1;image=img/lib/clip_art/computers/Server_Tower_128x128.png" parent="1" vertex="1">
          <mxGeometry x="63" y="180" width="40" height="40" as="geometry" />
        </mxCell>
        <mxCell id="yIpsprf4zcvvTlZBt0Jq-84" value="Web端" style="text;html=1;strokeColor=none;fillColor=none;align=center;verticalAlign=middle;whiteSpace=wrap;rounded=0;" parent="1" vertex="1">
          <mxGeometry x="10" y="64" width="60" height="30" as="geometry" />
        </mxCell>
        <mxCell id="yIpsprf4zcvvTlZBt0Jq-85" value="移动端" style="text;html=1;strokeColor=none;fillColor=none;align=center;verticalAlign=middle;whiteSpace=wrap;rounded=0;" parent="1" vertex="1">
          <mxGeometry x="10" y="122" width="60" height="30" as="geometry" />
        </mxCell>
        <mxCell id="yIpsprf4zcvvTlZBt0Jq-86" value="第三方&lt;br&gt;应用" style="text;html=1;strokeColor=none;fillColor=none;align=center;verticalAlign=middle;whiteSpace=wrap;rounded=0;" parent="1" vertex="1">
          <mxGeometry x="10" y="185" width="60" height="30" as="geometry" />
        </mxCell>
        <mxCell id="yIpsprf4zcvvTlZBt0Jq-87" style="edgeStyle=orthogonalEdgeStyle;rounded=0;orthogonalLoop=1;jettySize=auto;html=1;exitX=1;exitY=0.5;exitDx=0;exitDy=0;entryX=0.006;entryY=0.642;entryDx=0;entryDy=0;entryPerimeter=0;" parent="1" edge="1">
          <mxGeometry relative="1" as="geometry">
            <mxPoint x="710" y="404.26" as="sourcePoint" />
            <mxPoint x="751" y="404.26" as="targetPoint" />
          </mxGeometry>
        </mxCell>
        <mxCell id="yIpsprf4zcvvTlZBt0Jq-88" value="Web端" style="text;html=1;strokeColor=none;fillColor=none;align=center;verticalAlign=middle;whiteSpace=wrap;rounded=0;" parent="1" vertex="1">
          <mxGeometry x="10" y="330" width="60" height="30" as="geometry" />
        </mxCell>
        <mxCell id="yIpsprf4zcvvTlZBt0Jq-89" value="航司/机场&lt;br&gt;客户端或应用" style="text;html=1;strokeColor=none;fillColor=none;align=center;verticalAlign=middle;whiteSpace=wrap;rounded=0;" parent="1" vertex="1">
          <mxGeometry x="10" y="250" width="120" height="40" as="geometry" />
        </mxCell>
        <mxCell id="yIpsprf4zcvvTlZBt0Jq-90" value="" style="rounded=0;whiteSpace=wrap;html=1;fillColor=none;dashed=1;" parent="1" vertex="1">
          <mxGeometry x="10" y="311" width="120" height="69" as="geometry" />
        </mxCell>
        <mxCell id="yIpsprf4zcvvTlZBt0Jq-91" value="运维平台/管理中心&lt;br&gt;客户端" style="text;html=1;strokeColor=none;fillColor=none;align=center;verticalAlign=middle;whiteSpace=wrap;rounded=0;" parent="1" vertex="1">
          <mxGeometry x="10" y="386" width="120" height="40" as="geometry" />
        </mxCell>
      </root>
    </mxGraphModel>
  </diagram>
</mxfile>
